<?xml version="1.0" encoding="UTF-8"?>
<svg version="1.1" xmlns="http://www.w3.org/2000/svg" width="4000" height="4000">
<path d="M0 0 C1.02668053 -0.00560927 2.05336106 -0.01121854 3.11115312 -0.01699778 C6.54458509 -0.03089475 9.97729347 -0.01638295 13.41071457 -0.00196791 C15.91043707 -0.00614167 18.41015716 -0.01206757 20.90987185 -0.01958537 C26.3582315 -0.03193014 31.80637347 -0.03185218 37.25473208 -0.02085119 C45.4110578 -0.00445691 53.567254 -0.01119255 61.72358272 -0.02238176 C75.6252528 -0.04077482 89.52686434 -0.04018513 103.42853969 -0.02925825 C117.51607809 -0.01825272 131.60357795 -0.01593227 145.69111866 -0.02420759 C146.58094309 -0.02472428 147.47076753 -0.02524097 148.38755634 -0.02577332 C152.01167762 -0.02790641 155.63579885 -0.03010124 159.25992003 -0.03237442 C193.01568267 -0.05353243 226.77141947 -0.0549663 260.52718586 -0.04378462 C261.52744767 -0.04345344 262.52770948 -0.04312225 263.55828226 -0.04278104 C264.56014194 -0.04244932 265.56200163 -0.0421176 266.5942207 -0.04177583 C297.10406856 -0.03168717 327.61390574 -0.02907564 358.12375492 -0.03386641 C360.16603665 -0.03417632 362.20831838 -0.03448495 364.25060012 -0.03479229 C372.45746632 -0.03603413 380.66433252 -0.03730879 388.87119872 -0.03863134 C411.81335044 -0.04229954 434.7555022 -0.04458182 457.69765419 -0.04577589 C458.74242221 -0.04583047 459.78719023 -0.04588506 460.86361789 -0.04594129 C494.15913663 -0.04757863 527.45465165 -0.04306965 560.75016922 -0.03437757 C562.37026198 -0.03395608 562.37026198 -0.03395608 564.0230839 -0.03352607 C581.56311491 -0.02894616 599.10314584 -0.02406836 616.64317677 -0.01916538 C686.2135672 0.000261 755.78392683 -0.00064198 825.35431713 -0.02008772 C842.88664316 -0.02497238 860.4189692 -0.02981655 877.95129532 -0.03437757 C879.03078901 -0.03465937 880.1102827 -0.03494116 881.22248832 -0.03523149 C914.48387934 -0.04385465 947.74526781 -0.04751363 981.00665992 -0.04577589 C982.05064939 -0.04572155 983.09463886 -0.04566722 984.17026437 -0.04561123 C1007.0862191 -0.04436139 1030.00217356 -0.04182696 1052.91812802 -0.03813388 C1061.11738659 -0.03681728 1069.31664517 -0.03556496 1077.51590376 -0.03433103 C1079.55570928 -0.03402148 1081.5955148 -0.03370656 1083.63532031 -0.03338625 C1114.13864576 -0.02860956 1144.64195919 -0.03268214 1175.14528314 -0.04278104 C1176.64580005 -0.04327781 1176.64580005 -0.04327781 1178.17663044 -0.04378462 C1179.67438543 -0.04428071 1179.67438543 -0.04428071 1181.20239809 -0.04478683 C1214.85870623 -0.05581274 1248.51498337 -0.05177546 1282.17128707 -0.03066164 C1285.78345914 -0.02845217 1289.39563124 -0.02630536 1293.00780338 -0.02420759 C1294.33755825 -0.02342635 1294.33755825 -0.02342635 1295.69417686 -0.02262933 C1309.74576904 -0.0147319 1323.79732274 -0.02024107 1337.84891146 -0.03128362 C1351.65714935 -0.04185054 1365.46532216 -0.0381765 1379.27355178 -0.01922726 C1387.37418558 -0.00853535 1395.47464117 -0.00880563 1403.57526654 -0.02515365 C1409.58175337 -0.03605709 1415.58801443 -0.02620641 1421.59449193 -0.00812855 C1424.0148013 -0.0040857 1426.43513335 -0.00680149 1428.85542482 -0.01695231 C1432.1349102 -0.02973522 1435.41342959 -0.01794173 1438.69287014 0 C1439.62899167 -0.00956297 1440.5651132 -0.01912594 1441.52960205 -0.02897869 C1450.91484725 0.07569792 1458.74471998 3.13517679 1465.59235424 9.56780291 C1470.68918887 15.39443833 1472.40767947 21.7938442 1472.41141099 29.3931753 C1472.41442696 30.60822915 1472.41744292 31.823283 1472.42055029 33.07515666 C1472.41885125 34.42806841 1472.41706051 35.78098006 1472.41518825 37.13389158 C1472.4168376 38.5735063 1472.41892373 40.01312057 1472.42140836 41.45273408 C1472.42698856 45.43129592 1472.42630012 49.40983629 1472.42463076 53.38840079 C1472.42390133 57.70831234 1472.4289187 62.02821776 1472.43320578 66.34812671 C1472.44079675 74.92626467 1472.4429794 83.5043964 1472.44353484 92.08253737 C1472.44444739 102.3531982 1472.4511117 112.62385326 1472.45788166 122.89451161 C1472.47395491 147.72040595 1472.47984633 172.54629969 1472.48463041 197.3721983 C1472.48696492 209.1119267 1472.49056739 220.85165461 1472.49432579 232.59138263 C1472.50716213 272.76234339 1472.51788152 312.93330388 1472.52132839 353.10426664 C1472.52155002 355.62678356 1472.52177181 358.14930047 1472.52199374 360.67181738 C1472.52221438 363.20049377 1472.52243487 365.72917015 1472.52265519 368.25784653 C1472.52309775 373.33097327 1472.52354486 378.4041 1472.52399486 383.47722673 C1472.52410425 384.73507075 1472.52421364 385.99291476 1472.52432635 387.28887526 C1472.52795802 428.08626859 1472.54388178 468.88364416 1472.56718523 509.68103068 C1472.59176688 552.79485488 1472.60550044 595.90866892 1472.60669631 639.02250034 C1472.60686777 643.75294149 1472.6070832 648.48338264 1472.60733074 653.2138238 C1472.60738651 654.37862684 1472.60744228 655.54342989 1472.60749974 656.74353 C1472.6086516 675.50929274 1472.61968509 694.27503731 1472.63421779 713.04079391 C1472.64856572 731.89355943 1472.65182943 750.74630157 1472.64377782 769.59907105 C1472.63931358 780.80613266 1472.64321386 792.01311895 1472.65901632 803.2201707 C1472.66874146 810.70182763 1472.66761173 818.18343159 1472.6575801 825.665088 C1472.65217023 829.93085951 1472.6515351 834.19648602 1472.66408882 838.46224573 C1472.67541575 842.34345071 1472.67291668 846.22439252 1472.65942174 850.10558833 C1472.65698744 851.50043851 1472.65957286 852.89530888 1472.66781822 854.29013681 C1472.72373942 864.41629941 1472.24745084 873.05190776 1465.15876049 880.81389666 C1464.45493236 881.61440447 1463.75110424 882.41491228 1463.02594799 883.23967791 C1453.87931125 890.7836988 1443.79409306 890.06366345 1432.52033275 889.99968767 C1430.61406827 890.00351455 1428.70780668 890.00913674 1426.80155224 890.0164113 C1422.70916326 890.02833198 1418.617031 890.02789563 1414.52463764 890.01781702 C1408.04792522 890.00221311 1401.57147475 890.01596436 1395.09478039 890.0338521 C1382.51361751 890.06463279 1369.93253524 890.06617488 1357.35134166 890.06420183 C1341.34087145 890.06280785 1325.33046331 890.0732129 1309.32003868 890.11277956 C1302.88749416 890.12768047 1296.45518299 890.12746742 1290.02263504 890.11530173 C1286.01454846 890.11057821 1282.0065505 890.11813001 1277.99847835 890.12884569 C1276.146617 890.13124393 1274.29474058 890.12854454 1272.44289631 890.12023783 C1255.78186911 889.68354003 1255.78186911 889.68354003 1241.40876049 897.12639666 C1240.71008861 897.73741228 1240.01141674 898.34842791 1239.29157299 898.97795916 C1232.25751681 907.81842665 1232.7110036 917.3193953 1232.76618236 928.08733416 C1232.76075587 929.86714547 1232.75363026 931.64695228 1232.74494213 933.42675066 C1232.7267685 938.24083095 1232.73375162 943.05456682 1232.74645847 947.86865282 C1232.75661709 952.91730443 1232.74718486 957.96592743 1232.74091381 963.01458025 C1232.73364573 971.49135912 1232.74320307 979.96799838 1232.76227611 988.44475603 C1232.78404321 998.23159203 1232.77699125 1008.01809466 1232.75497049 1017.80492258 C1232.73679257 1026.22218911 1232.73426987 1034.63935555 1232.74472517 1043.05663538 C1232.75094694 1048.07756432 1232.75183201 1053.09833679 1232.73857921 1058.11925554 C1232.72698649 1062.84066343 1232.73510878 1067.56164336 1232.75815624 1072.28300524 C1232.76342509 1074.01111184 1232.76196094 1075.73925473 1232.75310558 1077.46734667 C1232.61544339 1090.01902185 1232.61544339 1090.01902185 1237.28376049 1101.50139666 C1238.11907299 1102.86264666 1238.11907299 1102.86264666 1238.97126049 1104.25139666 C1245.28937 1110.39874645 1252.34587587 1112.65303742 1260.97345775 1112.63269854 C1262.1600999 1112.63587211 1262.1600999 1112.63587211 1263.3707146 1112.63910979 C1266.03054577 1112.64511729 1268.69032959 1112.64410909 1271.35016674 1112.64324236 C1273.2539202 1112.64627348 1275.15767295 1112.6497948 1277.06142467 1112.65377092 C1281.16692985 1112.66166587 1285.27242631 1112.66680717 1289.37793773 1112.67006159 C1295.87538097 1112.67597035 1302.37276937 1112.69251091 1308.87018627 1112.71140337 C1311.09485665 1112.71774108 1313.31952706 1112.7240667 1315.5441975 1112.73038054 C1316.65848881 1112.73354635 1317.77278011 1112.73671216 1318.92083782 1112.7399739 C1334.04912642 1112.7820361 1349.17738999 1112.81500826 1364.30573314 1112.82732439 C1374.50701367 1112.83571473 1384.70815893 1112.85824413 1394.90937179 1112.89668006 C1400.30604267 1112.91641273 1405.70251145 1112.92885463 1411.09922069 1112.92384577 C1416.1816918 1112.91918631 1421.26378057 1112.93307573 1426.34617466 1112.96085787 C1428.20566023 1112.96774859 1430.06518552 1112.96791916 1431.92466968 1112.9606576 C1443.87717649 1112.91871747 1455.53545474 1112.98707175 1464.78376049 1121.72405291 C1469.42413226 1127.22241009 1472.39935925 1133.3392888 1472.41798156 1140.57326746 C1472.42466833 1141.78295983 1472.42466833 1141.78295983 1472.43149018 1143.01709044 C1472.43121364 1144.33759518 1472.43121364 1144.33759518 1472.43093151 1145.68477678 C1472.4346082 1146.62443942 1472.43828488 1147.56410206 1472.44207299 1148.53223932 C1472.45310801 1151.68879336 1472.45695338 1154.84531449 1472.46076244 1158.00188494 C1472.46702725 1160.26208396 1472.47367406 1162.52228195 1472.48067516 1164.78247881 C1472.50171652 1172.21221496 1472.51207785 1179.64195132 1472.52204174 1187.07170916 C1472.52608931 1189.62966088 1472.53020623 1192.18761249 1472.53439182 1194.74556398 C1472.55126077 1205.38630032 1472.56589522 1216.02703324 1472.57314056 1226.6677804 C1472.57505035 1229.42774885 1472.57697069 1232.1877173 1472.5789265 1234.94768572 C1472.57941024 1235.63363262 1472.57989398 1236.31957952 1472.58039238 1237.02631269 C1472.58868833 1248.1320801 1472.61401868 1259.23773964 1472.64650718 1270.34345998 C1472.67961576 1281.75450928 1472.69726027 1293.16547816 1472.7007848 1304.57658041 C1472.70313487 1310.97982527 1472.71208996 1317.38289963 1472.73724598 1323.78609896 C1472.76053864 1329.81240237 1472.7647549 1335.83842315 1472.75448459 1341.86475992 C1472.75398941 1344.0730011 1472.7603045 1346.28125624 1472.77404064 1348.48945475 C1472.79178599 1351.51201132 1472.78463994 1354.53355648 1472.77150768 1357.55611467 C1472.78796155 1358.85654292 1472.78796155 1358.85654292 1472.80474782 1360.18324244 C1472.70895633 1369.36072119 1469.48809461 1377.13468614 1463.21735424 1383.80999041 C1456.49450765 1389.69078348 1449.32685193 1390.65050949 1440.67656749 1390.64856768 C1439.79886371 1390.65224436 1438.92115992 1390.65592105 1438.01685905 1390.65970916 C1435.06993162 1390.67073963 1432.12303946 1390.67458879 1429.17609447 1390.67839861 C1427.06529927 1390.68466382 1424.95450516 1390.69131067 1422.84371227 1390.69831133 C1415.9057674 1390.71934996 1408.96782232 1390.72971457 1402.02985424 1390.73967791 C1399.6403233 1390.74372575 1397.25079248 1390.74784268 1394.86126179 1390.75202799 C1383.63311531 1390.7710804 1372.4049754 1390.78531049 1361.17681587 1390.79363996 C1348.22316267 1390.80340842 1335.26968054 1390.82971766 1322.3160876 1390.87014085 C1312.29978058 1390.90032321 1302.28352252 1390.91511092 1292.26717091 1390.91842097 C1286.28698654 1390.92076932 1280.30698491 1390.92970182 1274.3268494 1390.95488214 C1268.69697179 1390.97820431 1263.06739669 1390.98237927 1257.43748325 1390.97212076 C1255.37640415 1390.97162628 1253.31530995 1390.97792076 1251.25427669 1390.99167681 C1228.22797192 1391.13670481 1228.22797192 1391.13670481 1218.90876049 1384.25139666 C1210.88303337 1375.84349205 1208.96052801 1366.97637388 1209.03893322 1355.58991289 C1209.03553636 1354.31489331 1209.03553636 1354.31489331 1209.03207088 1353.01411575 C1209.02681104 1350.19086886 1209.03557659 1347.36784524 1209.04425853 1344.54460955 C1209.04314466 1342.51027147 1209.0410853 1340.47593373 1209.03815502 1338.44159746 C1209.03344457 1334.07262232 1209.03454062 1329.70370098 1209.03993076 1325.33472681 C1209.04755788 1318.4212043 1209.03686577 1311.50778481 1209.02272838 1304.59427691 C1208.98503717 1284.93904503 1208.96680192 1265.28386035 1208.97834057 1245.62859392 C1208.98456136 1234.76402774 1208.97295621 1223.89962842 1208.94189525 1213.03510326 C1208.92326726 1206.16760459 1208.92653418 1199.30057957 1208.94606286 1192.4330889 C1208.95295831 1188.15506915 1208.93896071 1183.8773047 1208.91911358 1179.59933329 C1208.91407877 1177.62169606 1208.91751884 1175.64401551 1208.93024677 1173.66641283 C1209.1914366 1157.94301804 1209.1914366 1157.94301804 1201.54158348 1144.62160635 C1194.26441716 1137.67920501 1185.73057734 1136.34591885 1175.99266362 1136.37653947 C1175.15559157 1136.37518811 1174.31851951 1136.37383675 1173.45608164 1136.37244444 C1170.63298404 1136.36911509 1167.80994092 1136.37294471 1164.98684448 1136.37669802 C1162.94094027 1136.37576786 1160.89503622 1136.37439728 1158.84913257 1136.37262458 C1153.19184015 1136.36899808 1147.53456481 1136.37162663 1141.87727299 1136.37519806 C1135.73583729 1136.37796536 1129.59440419 1136.37491219 1123.45296872 1136.37255073 C1112.67750103 1136.36919168 1101.90203959 1136.3694521 1091.12657207 1136.37210703 C1079.56178931 1136.37492466 1067.99700954 1136.3755171 1056.4322266 1136.37335443 C1055.70237882 1136.3732182 1054.97253103 1136.37308197 1054.22056665 1136.37294161 C1050.49918269 1136.37223152 1046.77779875 1136.37147467 1043.0564148 1136.37069287 C1035.42596923 1136.36909658 1027.79552362 1136.36776417 1020.16507798 1136.36650467 C1019.01224569 1136.36631291 1019.01224569 1136.36631291 1017.83612385 1136.36611728 C1005.87027415 1136.36416878 993.9044247 1136.36342378 981.93857485 1136.36338139 C980.7255883 1136.3633757 980.7255883 1136.3633757 979.48809697 1136.3633699 C976.20387469 1136.36335573 972.91965241 1136.36334527 969.63543013 1136.36333646 C928.65584825 1136.36319618 887.67627611 1136.35173476 846.69669761 1136.33571741 C839.01505055 1136.33271878 831.33340344 1136.32982092 823.65175634 1136.32691222 C819.35022491 1136.32528275 815.04869347 1136.32364827 810.74716204 1136.32201315 C809.89280944 1136.32168848 809.03845684 1136.32136382 808.15821476 1136.32102931 C802.9638747 1136.31905407 797.76953464 1136.31706815 792.57519459 1136.3150749 C753.49122751 1136.30008057 714.40726011 1136.28630236 675.32329203 1136.27420841 C672.61438665 1136.2733691 669.90548128 1136.27252377 667.19657591 1136.27167792 C625.47313484 1136.25869454 583.74969642 1136.24955822 542.02625316 1136.24999285 C541.1288256 1136.25000165 540.23139804 1136.25001046 539.30677571 1136.25001953 C524.83692825 1136.25017588 510.36708081 1136.25056053 495.89723336 1136.25098843 C454.22312759 1136.25221893 412.54902927 1136.2505099 370.87492698 1136.23189974 C370.01810942 1136.2315186 369.16129185 1136.23113746 368.27851011 1136.23074477 C350.31487344 1136.22271349 332.35123749 1136.21361453 314.38760208 1136.2031435 C305.97569632 1136.19824257 297.56379045 1136.19357077 289.1518845 1136.18902636 C288.32367348 1136.18857462 287.49546246 1136.18812288 286.64215414 1136.18765746 C259.95140574 1136.17321204 233.26068881 1136.17508561 206.56993949 1136.18566146 C179.69045438 1136.19625483 152.8110202 1136.19156358 125.93154429 1136.16539951 C122.21846289 1136.16179043 118.50538135 1136.15836191 114.79229969 1136.15504313 C113.70048575 1136.15405789 113.70048575 1136.15405789 112.58661497 1136.15305276 C101.05429672 1136.1431113 89.52205199 1136.14999733 77.9897404 1136.16388817 C66.65398671 1136.17719972 55.31838613 1136.17236219 43.9826364 1136.14941201 C37.9170207 1136.1376556 31.85168484 1136.1339198 25.78607867 1136.15208861 C20.27051707 1136.16845847 14.75547946 1136.16194255 9.23995432 1136.13699461 C7.25463367 1136.1320578 5.26927018 1136.13553556 3.28398481 1136.14835914 C-17.56775739 1136.27363224 -17.56775739 1136.27363224 -25.83566872 1128.51166253 C-31.79219525 1122.33498544 -34.17872297 1116.14998124 -34.09458834 1107.62875384 C-34.10127146 1106.47764216 -34.10127146 1106.47764216 -34.10808959 1105.3032757 C-34.11937087 1102.72953653 -34.10930047 1100.15632976 -34.09934956 1097.58259153 C-34.10308588 1095.7117181 -34.10813484 1093.8408469 -34.11437839 1091.96998015 C-34.12776324 1086.80795253 -34.12238676 1081.64608632 -34.1140449 1076.48405431 C-34.10825519 1070.8760553 -34.11977569 1065.26808795 -34.12910658 1059.66009742 C-34.14304546 1049.82433235 -34.14574495 1039.98861328 -34.1411472 1030.15284014 C-34.13622623 1019.59834857 -34.13763211 1009.04388621 -34.14702946 998.48939753 C-34.14761794 997.82292621 -34.14820642 997.15645489 -34.14881273 996.46978747 C-34.15122926 993.75537681 -34.15368934 991.0409662 -34.15620539 988.32655564 C-34.18172082 960.76389184 -34.18769205 933.20124759 -34.18579424 905.63857358 C-34.18553462 901.82922494 -34.18529595 898.0198763 -34.18507916 894.21052766 C-34.18503512 893.45391337 -34.18499108 892.69729908 -34.18494571 891.91775709 C-34.18408255 875.15530203 -34.18887247 858.39285004 -34.19476107 841.63039618 C-34.19610204 837.80373276 -34.19740192 833.97706932 -34.19870672 830.15040589 C-34.19923124 828.61462808 -34.19975583 827.07885028 -34.20028049 825.54307247 C-34.20054027 824.78181877 -34.20080005 824.02056506 -34.2010677 823.23624306 C-34.20159388 821.69644976 -34.20212155 820.15665646 -34.20265071 818.61686316 C-34.21764968 774.91955421 -34.22641571 731.2222477 -34.22169453 687.5249362 C-34.22160866 686.71562125 -34.2215228 685.9063063 -34.22143433 685.07246666 C-34.22047492 676.04757728 -34.21943671 667.0226879 -34.21837544 657.99779852 C-34.21808593 655.52763921 -34.21779644 653.0574799 -34.21750704 650.58732059 C-34.21731304 648.93919138 -34.21711754 647.29106217 -34.21692055 645.64293296 C-34.21070418 593.52143518 -34.22556528 541.39998384 -34.2582317 489.27849627 C-34.2664548 476.14556022 -34.27460472 463.01262414 -34.28233296 449.87968779 C-34.28280915 449.07106186 -34.28328535 448.26243594 -34.28377598 447.4293062 C-34.29836001 422.51076451 -34.30680718 397.59222666 -34.30889851 372.67368078 C-34.30896483 371.89145455 -34.30903114 371.10922833 -34.30909947 370.30329827 C-34.31049346 353.13239143 -34.31038233 335.96148487 -34.30888938 318.79057805 C-34.30836726 312.64668167 -34.3079501 306.50278528 -34.30758121 300.35888889 C-34.30748799 298.8304207 -34.30738885 297.3019525 -34.30728377 295.77348431 C-34.3056581 271.40992041 -34.31848879 247.04639107 -34.33844154 222.68283613 C-34.35841707 198.1473965 -34.36215708 173.61200843 -34.3438158 149.07656598 C-34.34128195 145.68691041 -34.33891951 142.29725474 -34.33665806 138.90759897 C-34.33620768 138.24312917 -34.3357573 137.57865937 -34.33529327 136.89405412 C-34.32820615 125.72872944 -34.34090713 114.5634969 -34.35881685 103.39818845 C-34.37301055 93.69103636 -34.36913051 83.98400158 -34.35037108 74.27685748 C-34.34018579 68.74081447 -34.33798301 63.20507967 -34.35769176 57.66905548 C-34.37545577 52.63404126 -34.37026493 47.59959575 -34.34666337 42.56461028 C-34.34220858 40.75325338 -34.34615225 38.94185166 -34.35947172 37.13053826 C-34.4388981 25.54587384 -33.49090633 16.67331184 -25.59123951 7.62639666 C-18.40811314 1.18684558 -9.31178434 -0.09536828 0 0 Z M233.7392959 273.48886591 C226.23409992 283.86610409 227.72355044 297.01504967 227.77582592 309.16852617 C227.77121453 311.49728422 227.76486002 313.82603936 227.75691694 316.15478843 C227.74023357 322.54119656 227.7484657 328.92736529 227.76086181 335.31377423 C227.77094227 341.49786926 227.75831987 347.68194058 227.74827235 353.86602889 C227.72723097 367.29132405 227.72902625 380.71654297 227.740588 394.14184535 C227.7506556 405.89000938 227.75327452 417.6381455 227.74849743 429.38631296 C227.74819189 430.16600516 227.74788635 430.94569736 227.74757155 431.7490166 C227.74632617 434.91413803 227.74505256 438.07925944 227.74373249 441.24438084 C227.73150063 470.92631963 227.74258398 500.60820992 227.76412008 530.29014123 C227.78310392 556.6549379 227.78140195 583.0196573 227.76227611 609.3844533 C227.74085364 639.01408048 227.73236629 668.64366482 227.74472517 698.27329868 C227.74600802 701.43229782 227.74725938 704.59129696 227.74849743 707.75029612 C227.74881374 708.52810725 227.74913005 709.30591839 227.74945594 710.10729956 C227.75400402 721.8481493 227.74868815 733.58896804 227.73857921 745.32981348 C227.72714171 758.6801721 227.73000258 772.03044265 227.75170219 785.3807903 C227.76240996 792.19313217 227.76632203 799.00530761 227.75310558 805.81765032 C227.74119112 812.05315303 227.7477292 818.2883533 227.76901579 824.52382856 C227.77348576 826.78005272 227.77120679 829.0363024 227.76151264 831.29251016 C227.74934378 834.35985234 227.76182981 837.42615946 227.78039593 840.49344778 C227.77103126 841.36888415 227.7616666 842.24432052 227.75201815 843.14628527 C227.86319136 852.33961975 231.06577753 860.12015673 237.35016674 866.80999041 C243.39753079 872.09990684 249.90982826 873.62521206 257.77070719 873.63019782 C258.4245612 873.63197283 259.07841521 873.63374784 259.75208298 873.63557664 C261.95670182 873.640331 264.16125563 873.63794016 266.36587757 873.63561773 C267.96379449 873.63757016 269.56171092 873.63995881 271.1596266 873.6427457 C275.5777257 873.64916248 279.99580665 873.64930599 284.41390953 873.64846829 C289.21030372 873.64863746 294.00669135 873.65453987 298.80308229 873.65970916 C308.32832045 873.66904852 317.85355396 873.67295945 327.37879613 873.67522812 C338.78307201 873.6781867 350.18734169 873.68688203 361.59161433 873.6956424 C389.15824578 873.71650126 416.72487832 873.72695859 444.29151583 873.73577201 C457.32713802 873.73997619 470.36275976 873.74519846 483.39838156 873.75045654 C527.30369965 873.76806691 571.20901783 873.7831206 615.1143389 873.79042678 C618.61456472 873.79101075 622.11479054 873.79160801 625.61501636 873.79220439 C626.656522 873.79238157 626.656522 873.79238157 627.71906816 873.79256233 C634.75373654 873.79375973 641.78840492 873.79496848 648.8230733 873.79619486 C650.23355026 873.7964401 651.64402723 873.79668395 653.05450419 873.79692643 C698.35662933 873.80471664 743.65872857 873.82710099 788.96084238 873.85960286 C821.50949216 873.88294692 854.05813678 873.90449947 886.60679477 873.91160917 C887.61075988 873.9118297 887.61075988 873.9118297 888.63500711 873.91205469 C903.98690828 873.91538232 919.33880934 873.91736429 934.69071084 873.91842097 C939.94326848 873.91883852 945.19582612 873.91931809 950.44838375 873.91984415 C952.38843668 873.92002894 952.38843668 873.92002894 954.36768259 873.92021746 C975.20492166 873.92255202 996.04213041 873.93822619 1016.87935867 873.958686 C1037.81348999 873.97891528 1058.7475848 873.98443503 1079.68172409 873.97491536 C1092.12612752 873.96968922 1104.57040958 873.9756304 1117.01479561 873.99745003 C1125.32250419 874.01091857 1133.63012886 874.00991615 1141.9378382 873.99704808 C1146.67461905 873.99012515 1151.41116722 873.98957135 1156.14792766 874.00660817 C1160.45771207 874.02198328 1164.76707622 874.01892161 1169.07684802 874.00119789 C1170.62570272 873.99804978 1172.17458933 874.00159575 1173.7234075 874.01268963 C1183.95029806 874.08116708 1191.93128158 873.03605254 1200.59626049 867.31389666 C1205.49267725 862.18973958 1209.4038637 855.7277479 1209.41371232 848.49186319 C1209.41724074 847.67206918 1209.42076916 846.85227516 1209.4244045 846.0076389 C1209.42320673 845.10550586 1209.42200895 844.20337282 1209.42077488 843.27390242 C1209.4234267 842.31275222 1209.42607853 841.35160203 1209.42881072 840.36132607 C1209.43652865 837.10970234 1209.43706384 833.85811623 1209.43766063 830.60648394 C1209.44167362 828.26400955 1209.44611156 825.92153585 1209.45094019 823.579063 C1209.46167044 817.79638983 1209.46766601 812.01372504 1209.47164907 806.23104359 C1209.47665549 799.30697222 1209.48738262 792.38291265 1209.4981308 785.45884824 C1209.52377023 768.7209589 1209.53879835 751.98306497 1209.55164127 735.24516162 C1209.55589522 729.70165893 1209.56046093 724.15815658 1209.56522459 718.6146543 C1209.59048449 689.14575972 1209.61253479 659.67686459 1209.62495273 630.20796156 C1209.62787411 623.37909681 1209.63084162 616.55023207 1209.63385814 609.72136736 C1209.63422905 608.87295812 1209.63459996 608.02454887 1209.63498211 607.15043026 C1209.64713769 579.64281629 1209.67808138 552.13526631 1209.71977967 524.62768239 C1209.76256227 496.35326455 1209.78919312 468.0788805 1209.79442745 439.80442941 C1209.7951679 435.81125804 1209.79607859 431.81808672 1209.79708523 427.82491541 C1209.79727584 427.03901652 1209.79746645 426.25311762 1209.79766285 425.44340361 C1209.80117705 412.79326751 1209.8214779 400.1432115 1209.84788186 387.49310482 C1209.87402173 374.7777999 1209.88175595 362.06258758 1209.87078057 349.34725963 C1209.86532866 342.45797825 1209.86788304 335.56892938 1209.89324611 328.67968607 C1209.91567009 322.37351419 1209.91505148 316.06778121 1209.89604224 309.76160199 C1209.89323266 307.47955784 1209.89889361 305.19748436 1209.91385518 302.91548752 C1209.93295301 299.81305061 1209.9211767 296.71218014 1209.90179294 293.60977888 C1209.91464216 292.724034 1209.92749138 291.83828913 1209.94072998 290.9257035 C1209.83753813 283.4074943 1207.43814081 276.92211698 1202.29398718 271.3436169 C1196.38793197 265.76809324 1190.5266757 263.12757007 1182.39857018 263.12304783 C1181.7381042 263.11859242 1181.07763822 263.114137 1180.39715812 263.10954658 C1178.18790736 263.09828885 1175.97927981 263.108325 1173.77003044 263.11828661 C1172.16179242 263.11454931 1170.55355702 263.10949974 1168.94532678 263.10325778 C1164.51250882 263.08988626 1160.07987907 263.09524429 1155.64705604 263.10359127 C1150.82954003 263.10938529 1146.01206072 263.09785769 1141.19455457 263.08852959 C1132.74669413 263.07459602 1124.29888725 263.07188969 1115.85101742 263.07648897 C1103.28877348 263.08331055 1090.72658393 263.07307691 1078.16434755 263.05953141 C1054.42480315 263.03459275 1030.68528121 263.03010378 1006.94572582 263.03199738 C988.61645363 263.03336929 970.28718925 263.02955853 951.95791858 263.02207232 C949.32660151 263.02102199 946.69528443 263.01997437 944.06396735 263.01892945 C942.75783637 263.01841011 941.45170538 263.01789076 940.10599467 263.01735568 C938.79750238 263.01683554 937.48901009 263.0163154 936.14086652 263.0157795 C934.83021987 263.0152555 933.51957323 263.01473151 932.16921002 263.01419164 C895.29434661 262.99960353 858.41948619 262.99130341 821.54461998 262.99594164 C820.84944918 262.9960275 820.15427839 262.99611337 819.43804181 262.99620184 C811.68607104 262.99716124 803.93410028 262.99819945 796.18212952 262.99926072 C794.06039112 262.99955024 791.93865271 262.99983972 789.81691431 263.00012913 C788.4012568 263.00032313 786.9855993 263.00051863 785.5699418 263.00071562 C740.80159311 263.0069318 696.03329848 262.99207141 651.26496166 262.95940447 C639.98488513 262.9511813 628.70480856 262.94303136 617.42473167 262.93530321 C616.73018175 262.93482702 616.03563182 262.93435082 615.32003493 262.93386019 C593.91522208 262.91927507 572.51041372 262.91082884 551.10559601 262.90873766 C550.43362356 262.90867134 549.76165111 262.90860503 549.06931587 262.9085367 C533.65652072 262.90708013 518.24372609 262.9074009 502.83093095 262.90894318 C497.5576372 262.90941317 492.28434345 262.90982342 487.01104969 262.91019487 C485.71258797 262.91029726 484.41412625 262.91039965 483.07631721 262.91050513 C463.45462017 262.91170115 443.83295906 262.89971728 424.2112717 262.88105059 C401.90168314 262.85983735 379.59217004 262.8559394 357.28257813 262.87535018 C344.79148129 262.88569531 332.30056837 262.88215814 319.80948806 262.85881932 C311.47075414 262.84461747 303.13215672 262.84851569 294.79343207 262.86726509 C290.03895323 262.8774428 285.28483311 262.87967354 280.53037628 262.8599444 C276.20452155 262.8421553 271.87932807 262.84740155 267.55350657 262.8709728 C265.99887505 262.87542054 264.44419115 262.87150572 262.88961052 262.85816444 C251.33385274 262.76571602 241.77504574 264.5241133 233.7392959 273.48886591 Z " fill="#ED1C24" transform="translate(312.7162395119667,1304.4986033439636)"/>
<path d="M0 0 C1.53164294 -0.00266251 1.53164294 -0.00266251 3.09422817 -0.00537882 C6.54457678 -0.01014139 9.99488399 -0.00774035 13.4452346 -0.00541991 C15.94307735 -0.00737192 18.44091978 -0.00976041 20.93876174 -0.01254788 C26.40159539 -0.01762337 31.86441664 -0.01956434 37.32725235 -0.01879714 C45.50540539 -0.01766287 53.68354839 -0.02223911 61.86169918 -0.02792798 C75.7982618 -0.03744578 89.73482242 -0.04214811 103.67138797 -0.04423732 C117.80013744 -0.04636464 131.9288838 -0.05062169 146.05763179 -0.05748004 C146.9491139 -0.05791065 147.840596 -0.05834127 148.75909272 -0.05878493 C152.38980718 -0.06054324 156.02052165 -0.06231289 159.6512361 -0.06409795 C203.68429786 -0.08570495 247.71736023 -0.09657746 291.75042608 -0.10557419 C306.0267612 -0.10850743 320.30309617 -0.11187722 334.57943112 -0.1155414 C336.08980506 -0.11592884 336.08980506 -0.11592884 337.63069162 -0.1163241 C341.70417758 -0.1173703 345.77766355 -0.11841873 349.85114951 -0.11946992 C419.52632183 -0.13743442 489.20149439 -0.15281454 558.87666869 -0.16022895 C564.35026879 -0.16081293 569.82386888 -0.16141019 575.29746898 -0.16200657 C576.92616929 -0.16218375 576.92616929 -0.16218375 578.58777263 -0.16236451 C589.58865412 -0.16356191 600.5895356 -0.16477067 611.59041709 -0.16599704 C613.79614445 -0.16624227 616.00187182 -0.16648613 618.20759919 -0.16672861 C689.06374381 -0.17452014 759.91987188 -0.19690763 830.77600926 -0.22940504 C881.68311298 -0.25274517 932.59021341 -0.27429972 983.49732238 -0.28141135 C985.06713236 -0.28163188 985.06713236 -0.28163188 986.66865567 -0.28185687 C1009.64088724 -0.28504142 1032.61311879 -0.2870925 1055.58535056 -0.28808442 C1064.82802023 -0.28849917 1074.0706899 -0.28905407 1083.31335956 -0.28964633 C1084.32492724 -0.289707 1085.33649491 -0.28976766 1086.37871616 -0.28983017 C1118.98495913 -0.29184748 1151.59118257 -0.30609556 1184.19741873 -0.32659133 C1217.03194502 -0.34715746 1249.86644872 -0.35507407 1282.70098081 -0.34551357 C1287.23558506 -0.34419506 1291.77018934 -0.34301703 1296.30479366 -0.34192294 C1297.1937221 -0.34170309 1298.08265054 -0.34148324 1298.99851621 -0.34125673 C1313.08872781 -0.33813926 1327.17889629 -0.34848113 1341.2690979 -0.36439849 C1355.11542462 -0.37976238 1368.96169155 -0.38092152 1382.80802032 -0.36685025 C1390.93116286 -0.35902467 1399.05412299 -0.36219648 1407.1772474 -0.38148742 C1413.2004307 -0.39457498 1419.22339617 -0.38690128 1425.24658066 -0.37100006 C1427.67367239 -0.36783915 1430.10078431 -0.37144436 1432.52785296 -0.38249181 C1435.8164601 -0.39649072 1439.10411131 -0.38589356 1442.39268494 -0.36914349 C1443.33149304 -0.37906086 1444.27030114 -0.38897823 1445.23755797 -0.39919613 C1454.63192258 -0.29806856 1462.46346839 2.75581157 1469.31830913 9.19520742 C1474.36647616 14.96620669 1476.13376871 21.33910179 1476.1368739 28.87310314 C1476.13978594 30.05518839 1476.14269797 31.23727364 1476.14569825 32.45517966 C1476.14287793 34.40890353 1476.14287793 34.40890353 1476.14000064 36.40209657 C1476.14153761 37.80248643 1476.14351353 39.20287586 1476.14588982 40.60326454 C1476.15118104 44.47291756 1476.1502266 48.34254829 1476.14831669 52.21220354 C1476.1473455 56.41405559 1476.15217178 60.61590147 1476.15629572 64.81775105 C1476.16274006 72.18928057 1476.16551292 79.56080441 1476.16592151 86.93233663 C1476.16656532 97.89409333 1476.17295155 108.8558413 1476.18066831 119.81759505 C1476.19275593 137.12554804 1476.2014117 154.43350063 1476.20770645 171.74145663 C1476.21773138 199.21500812 1476.23698048 226.68854715 1476.25924884 254.16209117 C1476.26777994 264.72725939 1476.27604594 275.29242782 1476.2843526 285.85759622 C1476.28574011 287.61839679 1476.28574011 287.61839679 1476.28715566 289.41476909 C1476.3091552 317.36916849 1476.32894213 345.32356927 1476.347606 373.27797109 C1476.34842568 374.50143372 1476.34924536 375.72489635 1476.35008988 376.98543361 C1476.36917544 405.53132947 1476.38613675 434.07722526 1476.39844829 462.6231249 C1476.39897796 463.85083206 1476.39950762 465.07853922 1476.40005334 466.34344963 C1476.40430494 476.23928779 1476.40848126 486.13512598 1476.41263814 496.03096418 C1476.42982734 536.81116553 1476.45702736 577.59134987 1476.49579852 618.37153661 C1476.50126056 624.12816246 1476.50659351 629.88478842 1476.51184016 635.64141446 C1476.51339174 637.34090034 1476.51339174 637.34090034 1476.51497465 639.07471927 C1476.53131451 657.32720777 1476.53682925 675.5796844 1476.53813783 693.83217951 C1476.53964063 712.16965867 1476.55177286 730.50710548 1476.57489423 748.84457036 C1476.58829692 759.74501863 1476.59327964 770.64539634 1476.58634788 781.54585104 C1476.58253467 788.82314131 1476.58952623 796.10036893 1476.60536365 803.37764285 C1476.61407892 807.52667987 1476.61802349 811.67557199 1476.60878979 815.82461121 C1476.600478 819.59991009 1476.60596156 823.37492908 1476.62239738 827.15019903 C1476.62754101 829.14604686 1476.61800849 831.14191609 1476.60786134 833.13774475 C1476.67484875 843.24288801 1477.99135374 850.90455849 1485.04096538 858.40223867 C1491.65201839 864.20002722 1498.63437356 865.2793698 1507.16807109 865.26010305 C1508.41218118 865.26327662 1508.41218118 865.26327662 1509.6814248 865.2665143 C1512.4648591 865.27251292 1515.24824805 865.27151424 1518.03168803 865.27064687 C1520.02588031 865.27367852 1522.02007188 865.27719999 1524.0142625 865.28117543 C1528.3118262 865.28906535 1532.60938159 865.29420975 1536.90695125 865.2974661 C1543.70664316 865.30337721 1550.50628275 865.31991927 1557.30594951 865.33880788 C1559.63432053 865.34514537 1561.96269157 865.351471 1564.29106265 865.35778505 C1566.04024403 865.36253376 1566.04024403 865.36253376 1567.8247624 865.36737841 C1583.65544705 865.40944256 1599.48610749 865.44242222 1615.31684428 865.4547289 C1625.99422387 865.4631147 1636.67147406 865.48562567 1647.34878892 865.52408457 C1652.99748069 865.54382927 1658.64597911 865.55625504 1664.2947076 865.55125028 C1669.61192425 865.54659671 1674.92877475 865.56044832 1680.24591762 865.58826238 C1682.19290272 865.59516243 1684.13992577 865.59531354 1686.08690959 865.58806211 C1706.34844116 865.52024589 1706.34844116 865.52024589 1715.59565288 871.91786367 C1716.1860435 872.52372304 1716.77643413 873.12958242 1717.38471538 873.75380117 C1717.99057475 874.34419179 1718.59643413 874.93458242 1719.22065288 875.54286367 C1724.06620146 882.54669153 1725.60395041 889.68862724 1725.51764995 898.07167226 C1725.52388991 899.020545 1725.53012987 899.96941774 1725.53655893 900.94704419 C1725.55240316 904.09903503 1725.53991819 907.25024329 1725.5272935 910.40223867 C1725.53271842 912.67317828 1725.53984314 914.94411438 1725.54853374 917.21504384 C1725.56672587 923.36377559 1725.55971637 929.51223803 1725.5470174 935.66097432 C1725.53686851 942.10517252 1725.54628832 948.54934813 1725.55256206 954.99354726 C1725.56029825 966.50654466 1725.54789177 978.01940475 1725.52752471 989.53238064 C1725.50965543 999.95585734 1725.51276008 1010.37915581 1725.53119975 1020.80262929 C1725.55264056 1032.9281166 1725.56055546 1045.05346415 1725.5487507 1057.17897397 C1725.54252453 1063.58992586 1725.54165615 1070.00075517 1725.55489665 1076.41169912 C1725.56647746 1082.4397644 1725.55838822 1088.46749412 1725.53531963 1094.49552327 C1725.53004451 1096.70375431 1725.5315257 1098.91201373 1725.54037029 1101.12023336 C1725.55135652 1104.14250955 1725.53752455 1107.16372108 1725.51764995 1110.18593007 C1725.53103428 1111.48605566 1725.53103428 1111.48605566 1725.544689 1112.81244642 C1725.43694688 1121.3017953 1722.71021216 1129.32088415 1716.83784038 1135.59364492 C1708.22365583 1142.82735117 1698.4592212 1143.28254719 1687.72495586 1143.26251394 C1686.37158864 1143.26591227 1686.37158864 1143.26591227 1684.99088067 1143.26937926 C1681.98493864 1143.27568035 1678.97904216 1143.27489241 1675.97309428 1143.27406484 C1673.81082665 1143.27705873 1671.64855954 1143.28046178 1669.48629314 1143.28424245 C1663.62470926 1143.29306247 1657.76313999 1143.2954197 1651.90155011 1143.29605824 C1648.23698492 1143.29676978 1644.57242342 1143.29890606 1640.90785915 1143.30155545 C1628.11661352 1143.31080168 1615.3253783 1143.31489117 1602.53412944 1143.3141039 C1590.62126576 1143.31350303 1578.70844734 1143.32405849 1566.79559511 1143.33984756 C1556.55756816 1143.3529321 1546.31955599 1143.35828743 1536.08152074 1143.35764849 C1529.97126189 1143.35739381 1523.8610433 1143.36022874 1517.7507928 1143.37082654 C1512.00355798 1143.38052306 1506.25640179 1143.380576 1500.50916415 1143.37330991 C1498.40413165 1143.37226606 1496.29909421 1143.37461504 1494.19407016 1143.38067037 C1491.3121025 1143.38842149 1488.43040431 1143.38372491 1485.54844218 1143.37603933 C1484.72312798 1143.38118289 1483.89781378 1143.38632645 1483.04749006 1143.39162588 C1472.81676409 1143.33167611 1463.89356354 1141.71912402 1456.28705913 1134.49208242 C1449.06270303 1126.59321641 1447.8526851 1118.02493451 1447.88514262 1107.65400869 C1447.88373248 1106.81472601 1447.88232233 1105.97544333 1447.88086945 1105.11072785 C1447.87722725 1102.30586289 1447.88054833 1099.50104884 1447.88373882 1096.69618398 C1447.88234347 1094.68199291 1447.88044378 1092.66780213 1447.87807781 1090.65361196 C1447.8735855 1086.31897669 1447.87172482 1081.98435087 1447.87161571 1077.64971334 C1447.870474 1070.79105405 1447.8576257 1063.93244842 1447.8420518 1057.07380849 C1447.83819252 1055.3363297 1447.83819252 1055.3363297 1447.83425528 1053.56375033 C1447.82898886 1051.19533707 1447.82370338 1048.82692386 1447.81839925 1046.4585107 C1447.78330986 1030.49443244 1447.75673761 1014.53042121 1447.7592271 998.56630117 C1447.7608168 987.79293769 1447.74475509 977.01975757 1447.70852047 966.24645287 C1447.69007974 960.54856443 1447.6807015 954.85098207 1447.69299632 949.15307027 C1447.70445376 943.79144506 1447.69268033 938.43036754 1447.66336185 933.06881505 C1447.65673558 931.10570052 1447.65856345 929.14253563 1447.66965991 927.17944127 C1447.73378723 914.80382224 1447.43868957 905.47342852 1438.32221538 896.19130117 C1429.40828037 888.14701836 1415.85187643 889.707014 1404.73507911 889.75127774 C1402.75296515 889.74814656 1400.7708529 889.74370149 1398.78874448 889.73806465 C1393.33184349 889.72636961 1387.87510148 889.73337911 1382.41820304 889.7433985 C1376.48536166 889.75099965 1370.5525449 889.74123241 1364.61970699 889.73366851 C1354.21827029 889.72282298 1343.81687038 889.72306731 1333.41543323 889.73080999 C1322.25588321 889.73906637 1311.09636055 889.74080267 1299.93680888 889.73459798 C1299.23172473 889.73421046 1298.52664058 889.73382295 1297.80019025 889.73342368 C1294.92845228 889.73182386 1292.05671435 889.73017773 1289.18497645 889.72847286 C1262.44191888 889.7126074 1235.69887966 889.7115276 1208.95581943 889.71991521 C1207.76732021 889.72028779 1207.76732021 889.72028779 1206.55481091 889.7206679 C1205.76121119 889.72091669 1204.96761147 889.72116547 1204.14996327 889.7214218 C1179.97890921 889.72898935 1155.80786274 889.73094646 1131.63680774 889.72735387 C1130.01861612 889.72712143 1128.4004245 889.72688996 1126.78223288 889.72665946 C1120.27950915 889.72572807 1113.77678543 889.72477207 1107.27406171 889.72378017 C1089.0960139 889.72102907 1070.91796605 889.71931732 1052.73991805 889.71842176 C1051.91211558 889.71838082 1051.08431312 889.71833988 1050.23142572 889.7182977 C1023.85178553 889.71706977 997.47214798 889.72045109 971.09250861 889.72697049 C969.80899664 889.72728661 969.80899664 889.72728661 968.49955512 889.72760912 C954.60367561 889.73104403 940.70779616 889.73470239 926.81191671 889.73837964 C871.69563199 889.75294948 816.57936914 889.75227198 761.46308452 889.73768789 C747.57304923 889.73402437 733.68301394 889.73039124 719.79297858 889.72697049 C718.93773872 889.72675915 718.08249885 889.7265478 717.20134262 889.72633006 C690.84846792 889.7198624 664.49559504 889.71711851 638.14271957 889.71842176 C637.31553734 889.71846251 636.48835512 889.71850326 635.63610676 889.71854525 C617.47891841 889.71948265 599.32173024 889.72138349 581.16454208 889.72415327 C574.66792384 889.72514071 568.17130559 889.72607995 561.67468734 889.7270054 C560.05847392 889.72723756 558.4422605 889.72747376 556.82604708 889.72771399 C532.66022 889.73129605 508.49440145 889.72824295 484.32857542 889.7206679 C483.53615982 889.72041951 482.74374421 889.72017112 481.92731601 889.71991521 C481.13635994 889.71966716 480.34540387 889.71941912 479.53047943 889.71916355 C452.86619369 889.71089297 426.20192995 889.71392444 399.53764736 889.72975744 C396.6755052 889.73141454 393.81336302 889.73302464 390.95122081 889.73459798 C390.24879392 889.7349886 389.54636703 889.73537922 388.82265448 889.73578168 C377.69182164 889.74170318 366.56101613 889.73757453 355.43018575 889.72929096 C344.49035526 889.72136295 333.55056581 889.72437987 322.61074021 889.73833323 C316.7566607 889.74549485 310.90268503 889.74785735 305.04860865 889.73711528 C299.72628461 889.72744818 294.40415686 889.73150698 289.08184722 889.74665726 C287.16532458 889.74968642 285.24878582 889.7476603 283.33227594 889.74003945 C280.73285023 889.73043401 278.13410726 889.73931463 275.53471303 889.75275367 C274.79571823 889.74558145 274.05672343 889.73840922 273.29533485 889.73101966 C265.45964894 889.81344788 258.1059516 892.11634028 252.00971538 897.12880117 C245.48112659 904.44019436 243.7064562 910.86267349 243.75815898 920.50799733 C243.75518884 921.4445797 243.7522187 922.38116207 243.74915856 923.34612572 C243.74152807 926.48037102 243.74800881 929.61442839 243.75434428 932.74867421 C243.7515939 934.99769386 243.74791372 937.24671253 243.74337322 939.49572927 C243.73526287 944.33784149 243.73309238 949.17990753 243.73532039 954.02202588 C243.73815415 961.68329177 243.72379848 969.34446549 243.70634013 977.00570852 C243.68314721 987.75173374 243.66402944 998.49774916 243.65131694 1009.2437914 C243.65050657 1009.92535438 243.6496962 1010.60691735 243.64886127 1011.30913375 C243.63764884 1020.97315818 243.63236052 1030.63717686 243.62947415 1040.30120692 C243.62927016 1040.98125394 243.62906617 1041.66130096 243.628856 1042.36195546 C243.62865607 1043.04116867 243.62845613 1043.72038188 243.62825014 1044.4201773 C243.62451062 1055.76692186 243.60514973 1067.11356278 243.57376164 1078.46027005 C243.55356946 1086.07087362 243.55116705 1093.68120799 243.56204182 1101.29182738 C243.56465428 1106.03529865 243.55061838 1110.77861416 243.53196079 1115.52204496 C243.52665126 1117.71533942 243.52811428 1119.90866279 243.53699619 1122.1019457 C243.63436218 1148.26371702 243.63436218 1148.26371702 234.78705913 1157.62880117 C229.28870195 1162.26917294 223.17182324 1165.24439993 215.93784457 1165.26302224 C214.7281522 1165.26970901 214.7281522 1165.26970901 213.49402159 1165.27653086 C212.6136851 1165.2763465 211.73334861 1165.27616214 210.82633525 1165.27597219 C209.88667261 1165.27964888 208.94700998 1165.28332556 207.97887272 1165.28711367 C204.82231867 1165.29814868 201.66579755 1165.30199406 198.5092271 1165.30580312 C196.24902808 1165.31206793 193.98883009 1165.31871474 191.72863322 1165.32571584 C184.29889707 1165.3467572 176.86916071 1165.35711853 169.43940288 1165.36708242 C166.88145116 1165.37112999 164.32349955 1165.37524691 161.76554805 1165.3794325 C151.12481172 1165.39630145 140.4840788 1165.4109359 129.84333163 1165.41818124 C127.08336318 1165.42009102 124.32339474 1165.42201137 121.56342632 1165.42396718 C120.87747941 1165.42445092 120.19153251 1165.42493466 119.48479934 1165.42543306 C108.37903193 1165.43372901 97.27337239 1165.45905936 86.16765206 1165.49154786 C74.75660276 1165.52465644 63.34563387 1165.54230094 51.93453163 1165.54582548 C45.53128676 1165.54817555 39.12821241 1165.55713064 32.72501308 1165.58228666 C26.69870967 1165.60557932 20.67268889 1165.60979557 14.64635211 1165.59952527 C12.43811094 1165.59903009 10.2298558 1165.60534518 8.02165729 1165.61908132 C4.99910072 1165.63682667 1.97755556 1165.62968062 -1.04500264 1165.61654836 C-2.34543088 1165.63300223 -2.34543088 1165.63300223 -3.67213041 1165.6497885 C-12.24194405 1165.56033961 -20.11754348 1162.7942557 -26.45512837 1156.90614492 C-32.55246494 1149.84688757 -34.14245243 1143.07654535 -34.12171239 1133.97800332 C-34.12376502 1133.14540446 -34.12581765 1132.3128056 -34.12793249 1131.45497647 C-34.13361653 1128.64667715 -34.13214351 1125.83842666 -34.13072652 1123.03012258 C-34.13330935 1121.00368224 -34.13632228 1118.9772424 -34.13972992 1116.95080328 C-34.14781282 1111.36763934 -34.14959021 1105.78448825 -34.15032738 1100.20131916 C-34.1521757 1094.18547936 -34.15972191 1088.16964626 -34.1664626 1082.15381032 C-34.18076463 1068.30621571 -34.18657367 1054.45862288 -34.19115455 1040.61102269 C-34.19349018 1033.76852478 -34.19709279 1026.9260277 -34.20084992 1020.08353045 C-34.21368571 996.66238212 -34.22440487 973.24123426 -34.22785252 949.82008249 C-34.22807416 948.34971865 -34.22829594 946.87935482 -34.22851788 945.40899099 C-34.22873852 943.93506889 -34.228959 942.4611468 -34.22917932 940.9872247 C-34.22962188 938.03026646 -34.23006899 935.07330823 -34.230519 932.11635 C-34.23062839 931.38319577 -34.23073778 930.65004154 -34.23085048 929.89467052 C-34.23448122 906.12140643 -34.25040176 882.34817284 -34.27370936 858.57492043 C-34.29830464 833.44232201 -34.31202522 808.30974103 -34.31322044 783.17713022 C-34.3133919 780.41825002 -34.31360732 777.65936982 -34.31385487 774.90048963 C-34.31391064 774.2211724 -34.31396641 773.54185517 -34.31402387 772.84195257 C-34.31517458 761.90909828 -34.3261983 750.97627528 -34.34074193 740.04343155 C-34.35510737 729.05451981 -34.35809111 718.06564288 -34.35030195 707.07672349 C-34.34638976 701.12328298 -34.34735288 695.16994775 -34.3613593 689.21652013 C-34.37406389 683.76665161 -34.37293091 678.31696787 -34.36076859 672.86709972 C-34.35880562 670.89533425 -34.36191758 668.92355583 -34.37061295 666.95180855 C-34.38168864 664.27058323 -34.37422853 661.59001198 -34.36222142 658.90880471 C-34.36981661 658.14425327 -34.37741181 657.37970183 -34.38523716 656.59198216 C-34.30917291 648.71783089 -32.26870657 641.73881172 -26.92778462 635.81630117 C-25.88944478 634.61553945 -25.88944478 634.61553945 -24.83012837 633.39051992 C-15.04960464 625.60107942 -3.87170195 626.56634258 7.98713332 626.62937242 C10.04599293 626.62561395 12.10484995 626.62010027 14.16370073 626.61299375 C19.83372655 626.59851364 25.50347616 626.60897045 31.17349203 626.62340127 C37.3373236 626.63467702 43.50111666 626.62273247 49.66494584 626.61368978 C60.47196396 626.60103013 71.27887823 626.60305923 82.08589107 626.61497861 C93.68083643 626.62768207 105.27573593 626.63162096 116.87068683 626.62484914 C117.96948406 626.62421424 117.96948406 626.62421424 119.09047922 626.62356651 C122.82573278 626.62136473 126.56098623 626.6190141 130.29623966 626.61660585 C157.32997792 626.59943763 184.36368796 626.60114544 211.39742786 626.6123808 C238.17523101 626.62341437 264.95300983 626.62485636 291.73081332 626.61392576 C292.97844593 626.61342036 292.97844593 626.61342036 294.25128324 626.61290476 C303.54498147 626.60911998 312.83867956 626.60504631 322.13237762 626.60086162 C339.32161746 626.59313855 356.51085782 626.58675361 373.70009834 626.58074456 C374.99016274 626.58029112 374.99016274 626.58029112 376.30628906 626.57982852 C417.23892135 626.56551786 458.17155211 626.56379092 499.10418653 626.56454272 C501.82020523 626.56459219 504.53622393 626.56463675 507.25224263 626.56468 C522.68816002 626.56492951 538.12407741 626.56525282 553.55999479 626.5656607 C593.57802214 626.56670853 633.59604926 626.56558156 673.61407653 626.56282508 C676.32956833 626.56263911 679.04506014 626.56245879 681.76055194 626.56227918 C722.65907806 626.55953837 763.55760153 626.5537913 804.45612556 626.54006463 C805.3155248 626.53977778 806.17492404 626.53949093 807.06036568 626.53919539 C824.22976665 626.53345635 841.39916746 626.52737103 858.56856801 626.52046364 C867.85318967 626.51673451 877.13781139 626.5131941 886.4224332 626.50986081 C887.66840354 626.50941161 887.66840354 626.50941161 888.93954499 626.50895333 C916.53789072 626.49912862 944.13622067 626.5017852 971.73456625 626.5104951 C997.86033049 626.51869828 1023.98607948 626.5179733 1050.11184267 626.5060997 C1053.83461007 626.50441523 1057.55737751 626.50284701 1061.28014499 626.50135213 C1062.37480813 626.50090801 1062.37480813 626.50090801 1063.49158567 626.50045491 C1075.05678013 626.49605217 1086.62194669 626.5018008 1098.18713673 626.51179234 C1109.55329835 626.521414 1120.9194069 626.52021039 1132.28557031 626.50818039 C1138.36803455 626.50206637 1144.45039702 626.50079897 1150.53285498 626.51269042 C1156.06240514 626.52341825 1161.5917694 626.52044753 1167.12131056 626.50639519 C1169.11285144 626.5037678 1171.10440684 626.50620516 1173.09593325 626.51423718 C1175.79624104 626.52440222 1178.49589423 626.51609049 1181.19617641 626.50320601 C1182.3491682 626.51421589 1182.3491682 626.51421589 1183.52545276 626.52544819 C1192.60607791 626.43528104 1199.49472788 623.61982331 1206.06049663 617.37489492 C1213.69871794 608.5733373 1213.15793252 597.6295129 1213.14342815 586.62347585 C1213.1456937 585.36273285 1213.14795926 584.10198986 1213.15029347 582.80304253 C1213.15639453 579.3150712 1213.15627988 575.8271239 1213.15509909 572.33914846 C1213.15489466 568.5728518 1213.16041791 564.80656276 1213.16515666 561.04026967 C1213.1734544 553.66576143 1213.1762111 546.29126118 1213.17676904 538.91674867 C1213.1772446 532.92109981 1213.17930135 526.9254536 1213.18246967 520.92980558 C1213.19127372 503.92252163 1213.19588941 486.91524399 1213.19513919 469.90795776 C1213.19509924 468.99156118 1213.19505928 468.0751646 1213.19501811 467.13099843 C1213.19497723 466.21348008 1213.19493635 465.29596173 1213.19489423 464.3506398 C1213.1944878 449.48158548 1213.20405738 434.61255649 1213.21815648 419.74350949 C1213.23252671 404.46773016 1213.23942631 389.19196318 1213.2385627 373.91617692 C1213.23823097 365.34333541 1213.24096792 356.77052047 1213.25174075 348.19768506 C1213.26085424 340.89869728 1213.26301402 333.59974809 1213.25623133 326.30075707 C1213.25297046 322.57902784 1213.25289378 318.85737261 1213.26158458 315.13565046 C1213.27092191 311.09540366 1213.2646623 307.05532762 1213.25695354 303.01507741 C1213.2620971 301.84667764 1213.26724066 300.67827787 1213.27254009 299.47447205 C1213.22749565 288.77887767 1212.42912093 279.33084444 1205.00971538 271.12880117 C1198.43845579 265.79105447 1193.37332516 263.97792957 1184.94136739 264.00164264 C1183.685427 263.99924291 1183.685427 263.99924291 1182.40411408 263.9967947 C1179.56820103 263.99261275 1176.73233958 263.99561363 1173.89642555 263.9985159 C1171.8460305 263.99697985 1169.79563574 263.99500439 1167.74524149 263.99262673 C1162.0661576 263.98732346 1156.38708886 263.98829258 1150.70800343 263.99019985 C1144.54641961 263.99116941 1138.38484003 263.98634756 1132.2232579 263.98222083 C1121.40931611 263.97577089 1110.59537959 263.97297392 1099.78143626 263.97259504 C1088.17388628 263.9721616 1076.56633987 263.96952808 1064.95879108 263.96417218 C1064.22656092 263.96383499 1063.49433075 263.9634978 1062.7399118 263.96315039 C1059.00645715 263.96141783 1055.27300253 263.95964302 1051.53954791 263.95784824 C1043.88385001 263.95418019 1036.22815199 263.95080534 1028.57245392 263.94752842 C1027.80131321 263.94719799 1027.03017251 263.94686756 1026.2356639 263.94652712 C1009.28229591 263.93933492 992.3289274 263.93500828 975.37555845 263.93081009 C935.92878374 263.92102334 896.4820172 263.90248917 857.03524747 263.88067813 C841.55955768 263.87212672 826.08386774 263.86385603 810.6081778 263.85556104 C808.00093344 263.85416286 805.39368908 263.85276204 802.78644471 263.85136089 C762.6913159 263.82983047 722.59618618 263.81039314 682.50105575 263.79214804 C679.78223435 263.79091023 677.06341296 263.78966867 674.34459156 263.78842667 C632.47073965 263.7693229 590.59688775 263.75236577 548.72303325 263.74006826 C547.82245371 263.73980326 546.92187416 263.73953827 545.99400433 263.73926525 C536.00356502 263.73632841 526.0131257 263.73343564 516.02268637 263.73056065 C515.12519448 263.73030236 514.22770259 263.73004407 513.30301397 263.72977796 C508.77431184 263.72847524 504.24560971 263.72717523 499.71690757 263.7258784 C458.8026085 263.71413892 417.88831272 263.70030234 376.97401839 263.67702466 C375.68429508 263.67629235 375.68429508 263.67629235 374.36851676 263.67554524 C356.34194293 263.6652872 338.31536954 263.65440905 320.28879658 263.64271803 C311.84734595 263.63724605 303.40589523 263.63191889 294.96444446 263.62667638 C293.71775734 263.6258985 293.71775734 263.6258985 292.44588462 263.62510489 C265.66021891 263.60846554 238.87456193 263.6017962 212.08889141 263.60050155 C185.1125654 263.59916942 158.13626011 263.58876831 131.15994355 263.56555605 C127.43344481 263.56235313 123.70694599 263.55925937 119.98044711 263.55623227 C119.24993952 263.55563521 118.51943193 263.55503815 117.76678775 263.554423 C106.19265963 263.5452432 94.61855503 263.54615619 83.04442532 263.55127295 C71.66758229 263.55609807 60.29079703 263.55005099 48.91396142 263.53315289 C42.82634529 263.52442605 36.73882808 263.52050994 30.65121042 263.52972676 C25.1157197 263.53801786 19.58042033 263.53259266 14.04494946 263.51611917 C12.05236755 263.5126134 10.05976891 263.51415224 8.06719672 263.52129316 C-15.94738317 263.6008829 -15.94738317 263.6008829 -26.00981587 255.23036367 C-32.70535427 248.12543338 -34.13955954 239.89499716 -34.13745564 230.51487905 C-34.14113233 229.6364697 -34.14480902 228.75806035 -34.14859712 227.85303253 C-34.15962755 224.90377112 -34.16347673 221.95454496 -34.16728657 219.00526601 C-34.17355174 216.89284829 -34.18019859 214.78043167 -34.18719929 212.66801625 C-34.20823682 205.72526486 -34.2186018 198.78251326 -34.22856587 191.83973867 C-34.23261362 189.44894697 -34.23673055 187.0581554 -34.24091595 184.66736394 C-34.2599674 173.4344141 -34.27419821 162.20147083 -34.28252792 150.96850795 C-34.2922988 138.00635475 -34.31861477 125.04437239 -34.35902882 112.08227938 C-34.38920074 102.06089249 -34.40399786 92.03955453 -34.40730894 82.01812309 C-34.40965829 76.03405831 -34.41860413 70.05017604 -34.44377011 64.06616002 C-34.46707428 58.43382322 -34.47127445 52.8017888 -34.46100873 47.16941625 C-34.46051382 45.10630456 -34.46682081 43.04317787 -34.48056477 40.9801119 C-34.63018195 17.1830247 -34.63018195 17.1830247 -25.76372212 7.66395742 C-17.84271293 0.80722479 -10.06515534 -0.0215575 0 0 Z " fill="#ED1C24" transform="translate(2050.9902846217155,1304.8711988329887)"/>
</svg>
