<?xml version="1.0" encoding="UTF-8"?>
<svg version="1.1" xmlns="http://www.w3.org/2000/svg" width="4000" height="4000">
<path d="M0 0 C4.32859597 0.01332233 8.65718459 0.00854624 12.98579538 0.00629318 C20.43346531 0.00474256 27.88105459 0.01391501 35.32870424 0.03100669 C46.09589143 0.05569993 56.86304083 0.06323239 67.63025326 0.06697067 C85.1119179 0.07348849 102.59353983 0.09332068 120.07518137 0.1218785 C137.02700219 0.14954151 153.97881123 0.17068011 170.93065012 0.18340194 C171.99141179 0.18420593 173.05217347 0.18500993 174.14507943 0.18583828 C182.44459152 0.19207889 190.74410386 0.19794884 199.04361629 0.20370197 C239.5160099 0.2318513 279.98829623 0.2922414 320.46067941 0.34819686 C320.46067941 64.36819686 320.46067941 128.38819686 320.46067941 194.34819686 C297.68552316 194.4087828 274.91036691 194.46936874 251.44505441 194.53179061 C236.9893236 194.57230059 222.53359397 194.61303843 208.07786691 194.65483749 C200.47858326 194.67679905 192.87929944 194.69870322 185.28001535 194.72051132 C184.32774112 194.7232465 183.37546689 194.72598169 182.39433587 194.72879976 C167.07730595 194.77271091 151.7602691 194.8133906 136.44322714 194.85284948 C120.69070857 194.89350316 104.9382027 194.93769263 89.18570292 194.98507541 C79.48774043 195.01413767 69.78977857 195.04053428 60.09179941 195.06337584 C53.41598365 195.07936519 46.74018329 195.09882928 40.06438479 195.12086528 C36.22911248 195.13342742 32.39385137 195.14461257 28.55856454 195.15161598 C14.11830232 195.17900596 -0.31245478 195.29143013 -14.74580252 195.78290451 C-15.84534081 195.81926055 -16.9448791 195.85561659 -18.07773674 195.89307433 C-62.51821666 197.58753779 -108.14441661 207.2675698 -141.53932059 238.34819686 C-142.48162528 239.20929061 -143.42392996 240.07038436 -144.39478934 240.95757186 C-166.66092222 262.18734031 -179.94241419 291.23724918 -188.53932059 320.34819686 C-188.75539969 321.07136093 -188.97147879 321.79452499 -189.19410574 322.53960311 C-192.45007514 333.70292676 -194.4487365 345.06048906 -196.22682059 356.53569686 C-196.42928397 357.82161727 -196.63174735 359.10753768 -196.84034598 360.43242538 C-200.19719804 382.62560083 -200.9181785 404.88410584 -200.85717642 427.30000198 C-200.85173473 429.38103053 -200.84936854 431.46204771 -200.84730399 433.54308212 C-200.81575898 453.95159758 -200.32887408 474.0998862 -197.53932059 494.34819686 C-197.40010184 495.43874374 -197.26088309 496.52929061 -197.11744559 497.65288436 C-193.23279964 527.65098364 -184.99403725 556.70894304 -170.53932059 583.34819686 C-169.96439871 584.41425155 -169.38947684 585.48030624 -168.79713309 586.57866561 C-162.42263484 597.93232263 -154.4493474 607.89164424 -145.53932059 617.34819686 C-144.99017996 617.95018905 -144.44103934 618.55218124 -143.87525809 619.17241561 C-111.66832503 653.20387936 -59.87449882 662.38837001 -15.18092215 663.90264022 C-13.99229701 663.94361548 -12.80367186 663.98459074 -11.57902777 664.02680767 C4.65510767 664.53667564 20.89607383 664.57692585 37.13685739 664.6521138 C41.28762237 664.6721336 45.43835498 664.69685501 49.58909738 664.72112167 C61.62959978 664.78889896 73.67014239 664.84937783 85.71067941 664.91069686 C112.68817941 665.05507186 139.66567941 665.19944686 167.46067941 665.34819686 C167.46067941 590.43819686 167.46067941 515.52819686 167.46067941 438.34819686 C228.45162246 437.10348374 289.45873516 436.80343525 350.46067941 436.34819686 C350.46067941 576.26819686 350.46067941 716.18819686 350.46067941 860.34819686 C291.16380441 860.36882186 231.86692941 860.38944686 170.77317941 860.41069686 C152.08604318 860.41980087 133.39890695 860.42890487 114.14549387 860.43828475 C91.23448312 860.44280136 91.23448312 860.44280136 80.4911207 860.44364059 C73.02655853 860.444568 65.56200396 860.44821429 58.09744394 860.45377243 C49.46442718 860.46019096 40.83141764 860.46302054 32.19839848 860.46164181 C27.79338701 860.46104592 23.38839161 860.46191128 18.98338318 860.46741199 C-6.9167617 860.49815813 -32.84659156 860.41275651 -58.66432059 858.09819686 C-59.73403601 858.00349609 -59.73403601 858.00349609 -60.82536185 857.90688217 C-144.63903652 850.39901418 -229.82970652 828.53531737 -295.53932059 773.34819686 C-296.40943778 772.66112655 -297.27955496 771.97405624 -298.17603934 771.26616561 C-306.18767687 764.78354649 -313.49228516 757.61155924 -320.78932059 750.34819686 C-321.30279044 749.83990341 -321.81626029 749.33160995 -322.34528983 748.80791366 C-329.21248727 741.99528525 -335.56149264 734.97098947 -341.53932059 727.34819686 C-342.40774588 726.252816 -342.40774588 726.252816 -343.29371512 725.13530624 C-395.57207195 658.75710868 -420.2366799 579.6814954 -427.53932059 496.34819686 C-427.64373465 495.23766952 -427.74814871 494.12714218 -427.85572684 492.98296249 C-435.11856906 412.95379602 -430.26986387 328.09467664 -345.07447684 135.36772811 C-344.23787528 134.3712828 -343.40127371 133.37483749 -342.53932059 132.34819686 C-341.66239089 131.2692796 -340.7861055 130.18983837 -339.91041434 129.10991561 C-327.98585208 114.61247997 -314.5323203 100.67670642 -299.53932059 89.34819686 C-298.29312068 88.36430083 -297.04845619 87.37845837 -295.80494559 86.39116561 C-219.88287286 26.59341783 -122.8229478 2.52826165 0 0 Z " fill="#F7A627" transform="translate(2802.539320588112,1582.651803135872)"/>
<path d="M0 0 C66.99 0 133.98 0 203 0 C220.06460557 47.7808956 220.06460557 47.7808956 226.27862549 65.49920654 C228.26116014 71.15146657 230.24789487 76.80225064 232.234375 82.453125 C232.63447784 83.59143768 233.03458069 84.72975037 233.44680786 85.90255737 C237.48927018 97.39937327 241.55395974 108.88827727 245.625 120.375 C246.14833923 121.8517067 246.14833923 121.8517067 246.68225098 123.35824585 C248.4323364 128.29608791 250.18284488 133.23377985 251.93359375 138.17138672 C257.49363356 153.85298842 263.04606576 169.53728823 268.59960938 185.22119141 C270.06363919 189.3557878 271.52779799 193.49033847 272.99210167 197.62483788 C276.1204889 206.4579582 279.2480907 215.29135638 282.375 224.125 C282.61916908 224.81475922 282.86333817 225.50451843 283.11490631 226.21517944 C290.49753815 247.07116959 297.85151248 267.9370329 305.18499756 288.81036377 C310.54443326 304.06161295 315.94901255 319.29581539 321.4006958 334.51431274 C326.77912946 349.53242572 332.08674247 364.57491566 337.375 379.625 C343.31440653 396.52758333 349.26463156 413.4261323 355.25 430.3125 C355.58789551 431.26592285 355.92579102 432.2193457 356.27392578 433.20166016 C357.68760032 437.19050398 359.10138129 441.17931005 360.51531982 445.1680603 C365.22492865 458.45436805 369.93027486 471.74218442 374.63371277 485.0306778 C375.12756084 486.42592237 375.62142678 487.82116062 376.11531067 489.21639252 C383.49772076 510.07200936 390.85165359 530.93743452 398.18499756 551.81036377 C403.54443326 567.06161295 408.94901255 582.29581539 414.4006958 597.51431274 C419.7791294 612.53242554 425.08677074 627.57490581 430.375 642.625 C436.43879973 659.88196265 442.51486817 677.13438186 448.625 694.375 C448.97256348 695.35581543 449.32012695 696.33663086 449.67822266 697.34716797 C452.11799336 704.23173673 454.55884923 711.11592049 457 718 C459.79244188 725.87472538 462.58420033 733.74969246 465.375 741.625 C465.72125427 742.60188782 466.06750854 743.57877563 466.42425537 744.58526611 C470.5772506 756.30392793 474.71633594 768.02736705 478.8359375 779.7578125 C479.24215836 780.91432816 479.64837921 782.07084381 480.06690979 783.2624054 C481.69766951 787.90548374 483.32841073 792.54856805 484.95785522 797.19210815 C488.95532397 808.58129622 492.96583231 819.96450979 497.08984375 831.30859375 C497.40162567 832.16677704 497.71340759 833.02496033 498.03463745 833.90914917 C499.46341432 837.83724751 500.89883536 841.7627398 502.34472656 845.68457031 C502.83795516 847.03317953 503.3311234 848.38181081 503.82421875 849.73046875 C504.24791748 850.87926514 504.67161621 852.02806152 505.1081543 853.21166992 C506 856 506 856 506 859 C439.01 859 372.02 859 303 859 C298.50054903 847.75137257 298.50054903 847.75137257 296.97973633 843.39404297 C296.63391006 842.40688293 296.2880838 841.4197229 295.93177795 840.40264893 C295.56886154 839.35969666 295.20594513 838.31674438 294.83203125 837.2421875 C294.43934555 836.11995789 294.04665985 834.99772827 293.64207458 833.8414917 C292.36352973 830.18669708 291.08794839 826.53087625 289.8125 822.875 C288.02387188 817.75460102 286.23278559 812.63506198 284.44140625 807.515625 C284.21560757 806.87006779 283.98980888 806.22451057 283.75716782 805.55939102 C280.50142048 796.25306343 277.21522561 786.95805325 273.90234375 777.671875 C273.50493484 776.55656403 273.10752594 775.44125305 272.69807434 774.29214478 C271.17665023 770.02301226 269.65518397 765.75392682 268.12417603 761.48822021 C267.08399089 758.5899127 266.0493122 755.68969252 265.015625 752.7890625 C264.70725204 751.93552185 264.39887909 751.0819812 264.0811615 750.20257568 C263.80462234 749.42367981 263.52808319 748.64478394 263.24316406 747.84228516 C263.00148499 747.16815582 262.75980591 746.49402649 262.51080322 745.79946899 C262 744 262 744 262 741 C187.75 741 113.5 741 37 741 C30.09201648 726.03270237 23.20117814 711.08377247 16.54296875 696.0078125 C12.418503 686.6777991 8.2754427 677.35604704 4.1328125 668.03408813 C2.85231837 665.15211803 1.57258475 662.26981125 0.29296875 659.38745117 C-5.10135285 647.24168025 -10.53496673 635.11411601 -16 623 C-22.62917242 640.70476765 -28.95252998 658.50615291 -35.125 676.375 C-40.79008917 692.77320146 -46.50516147 709.15160717 -52.3125 725.5 C-58.13223256 741.88734253 -63.91828319 758.28604005 -69.67034912 774.69726562 C-73.01981878 784.25344245 -76.37217861 793.80860653 -79.72436523 803.36383057 C-80.58528487 805.81786345 -81.44612279 808.271925 -82.30688477 810.72601318 C-84.8625071 818.01138565 -87.42115748 825.29568165 -89.98416138 832.57846069 C-90.78262393 834.84878674 -91.58005825 837.11947468 -92.37643433 839.39053345 C-93.47093955 842.51130344 -94.56898505 845.63080482 -95.66796875 848.75 C-96.15550629 850.14396248 -96.15550629 850.14396248 -96.65289307 851.56608582 C-96.94943787 852.40537125 -97.24598267 853.24465668 -97.55151367 854.109375 C-97.80873703 854.84124023 -98.06596039 855.57310547 -98.33097839 856.32714844 C-99 858 -99 858 -100 859 C-102.61762734 859.09780042 -105.20885307 859.12994511 -107.82691956 859.12025452 C-108.65673511 859.12110894 -109.48655066 859.12196337 -110.34151214 859.12284368 C-113.14379319 859.12450103 -115.94601541 859.11897297 -118.74829102 859.11352539 C-120.74841307 859.11324355 -122.74853523 859.1134012 -124.74865723 859.1139679 C-130.19678035 859.11425598 -135.64488166 859.10835745 -141.0929997 859.10139394 C-146.77984842 859.09516226 -152.46669758 859.09455675 -158.15354919 859.09336853 C-168.93059959 859.09025466 -179.7076399 859.08204053 -190.48468584 859.07201904 C-202.75049607 859.06085962 -215.01630678 859.05534789 -227.28212082 859.05032361 C-252.52141949 859.03985796 -277.76070918 859.02225745 -303 859 C-302.2943447 855.31891658 -301.36014214 851.90387606 -300.12084961 848.36328125 C-299.73148224 847.24583023 -299.34211487 846.12837921 -298.94094849 844.97706604 C-298.51570892 843.76775925 -298.09046936 842.55845245 -297.65234375 841.3125 C-297.20431616 840.03113357 -296.75655803 838.74967289 -296.30905151 837.46812439 C-295.10617955 834.02636613 -293.89900269 830.58613252 -292.69086075 827.14622116 C-291.68069481 824.26839734 -290.67298889 821.38971457 -289.66522121 818.51105022 C-283.13378344 799.856103 -276.55094523 781.21974672 -269.90991211 762.60351562 C-264.73126329 748.08370676 -259.60956874 733.54424909 -254.5 719 C-248.38000152 701.58128352 -242.22893549 684.17421216 -236.0317688 666.7828064 C-230.45895893 651.14051042 -224.94088021 635.47934534 -219.4375 619.8125 C-213.83358675 603.85980325 -208.2027674 587.91763366 -202.5 572 C-196.81976292 556.14428678 -191.20837722 540.26507376 -185.625 524.375 C-179.56120027 507.11803735 -173.48513183 489.86561814 -167.375 472.625 C-167.02743652 471.64418457 -166.67987305 470.66336914 -166.32177734 469.65283203 C-163.5349536 461.78894562 -160.74665208 453.92558342 -157.95825195 446.06225586 C-155.51312438 439.16675554 -153.06864734 432.27102503 -150.625 425.375 C-150.27774872 424.39512115 -149.93049744 423.41524231 -149.57272339 422.40567017 C-143.42959632 405.06767411 -137.32410461 387.71655442 -131.22515869 370.36297607 C-125.5286414 354.15684595 -119.79743398 337.96353226 -114.03149414 321.78198242 C-108.45877068 306.13996282 -102.94078432 290.47907236 -97.4375 274.8125 C-91.83358675 258.85980325 -86.2027674 242.91763366 -80.5 227 C-74.81976292 211.14428678 -69.20837722 195.26507376 -63.625 179.375 C-57.56120027 162.11803735 -51.48513183 144.86561814 -45.375 127.625 C-45.02743652 126.64418457 -44.67987305 125.66336914 -44.32177734 124.65283203 C-41.5349536 116.78894562 -38.74665208 108.92558342 -35.95825195 101.06225586 C-33.51312437 94.16675553 -31.06878219 87.27097725 -28.625 80.375 C-28.28273376 79.40941162 -27.94046753 78.44382324 -27.58782959 77.44897461 C-23.28943886 65.320731 -19.00740913 53.18682172 -14.7421875 41.046875 C-14.29929071 39.78654819 -13.85638912 38.52622307 -13.41348267 37.26589966 C-11.26672028 31.15629651 -9.12161388 25.04611921 -6.97900391 18.93505859 C-6.20479039 16.73012996 -5.43054098 14.52521393 -4.65625 12.3203125 C-4.29981415 11.30193298 -3.9433783 10.28355347 -3.57614136 9.23431396 C-3.25001862 8.30637024 -2.92389587 7.37842651 -2.58789062 6.42236328 C-2.16183533 5.20723557 -2.16183533 5.20723557 -1.72717285 3.96755981 C-1 2 -1 2 0 0 Z M101 238 C91.75431461 267.91361002 82.59536515 297.85289492 73.5 327.8125 C73.24725311 328.64502918 72.99450623 329.47755836 72.73410034 330.3353157 C70.39050218 338.05529114 68.04746243 345.775436 65.70495605 353.4957428 C60.88434411 369.38319327 56.05859103 385.2690794 51.23177814 401.15464687 C49.50215449 406.84707678 47.77284473 412.53960198 46.04370117 418.23217773 C41.36871875 433.6225959 36.69256539 449.0126561 32.01296997 464.40167236 C30.0786669 470.76272677 28.14486324 477.12393298 26.21116829 483.48517227 C24.64152706 488.64862491 23.0712296 493.81187735 21.50041676 498.97497368 C20.52650387 502.17671099 19.55324106 505.37864565 18.58014488 508.58063126 C18.13473026 510.04580979 17.68905731 511.51090983 17.24308205 512.97591782 C16.03015264 516.96058749 14.8220001 520.94664057 13.62182999 524.93517303 C13.18354471 526.39052785 12.74396856 527.84549422 12.30346298 529.30017853 C11.59608071 531.63978069 10.89445493 533.98104218 10.1940918 536.32275391 C9.86465812 537.40781251 9.86465812 537.40781251 9.52856922 538.51479149 C8.65627274 541.44944254 8 543.92021819 8 547 C69.38 547 130.76 547 194 547 C192.68443332 540.42216662 191.29895595 534.19970304 189.34326172 527.83227539 C189.0815515 526.96645057 188.81984129 526.10062574 188.55020046 525.2085638 C187.68105967 522.33691812 186.80532969 519.4673255 185.9296875 516.59765625 C185.30269998 514.53000493 184.67618136 512.46221137 184.0500946 510.39428711 C182.70373765 505.95008571 181.35466521 501.50672159 180.00344849 497.06399536 C176.72895121 486.29645523 173.46928715 475.52442055 170.2086277 464.75268364 C169.45404492 462.26010545 168.69929151 459.7675789 167.94437218 457.27510262 C160.42636226 432.45292422 152.98163802 407.60916793 145.56164551 382.75753784 C143.56935665 376.08481353 141.57544743 369.41257426 139.58105469 362.74047852 C139.25499426 361.64965627 138.92893383 360.55883402 138.59299278 359.43495655 C137.61280239 356.15584869 136.63257562 352.87675171 135.65234375 349.59765625 C135.00765989 347.44096375 134.36297605 345.28427125 133.71829224 343.12757874 C132.12845447 337.80910656 130.53845459 332.49068287 128.94838715 327.17227936 C127.99733398 323.99108239 127.04642413 320.8098426 126.09552002 317.62860107 C122.77643392 306.52580459 119.45395838 295.42403824 116.12244511 284.32496357 C114.74636308 279.74029183 113.37192682 275.15514427 112.00198364 270.56863403 C110.74957781 266.37577193 109.49255374 262.18432457 108.23171806 257.99398994 C107.77531596 256.47420593 107.32062898 254.95390564 106.8677845 253.43305779 C106.25454862 251.37451687 105.63517704 249.3179233 105.01416016 247.26171875 C104.49941635 245.54408325 104.49941635 245.54408325 103.97427368 243.79174805 C103.07536054 240.84267587 103.07536054 240.84267587 101 238 Z " fill="#F6A529" transform="translate(1896,1583)"/>
<path d="M0 0 C194.7 0 389.4 0 590 0 C594.62 8.25 599.24 16.5 604 25 C608.46750269 32.81823768 608.46750269 32.81823768 612.94140625 40.6328125 C616.91229976 47.58219919 620.81169473 54.57148015 624.71655273 61.55810547 C630.24242759 71.44283418 635.81230885 81.30229992 641.39111328 91.15722656 C644.63932104 96.89654844 647.88293027 102.63847067 651.12744141 108.37988281 C653.82176458 113.14732226 656.51711902 117.91417193 659.21484375 122.6796875 C664.85587968 132.64754259 670.4746836 142.62720252 676.0625 152.625 C680.81606488 161.12904202 685.61660423 169.60399747 690.46557617 178.05395508 C694.3186858 184.77925564 698.10183473 191.54209212 701.875 198.3125 C706.5069053 206.62183803 711.23709581 214.86414097 716.0625 223.0625 C721.32440809 232.01067518 726.34091301 241.066752 731.24853516 250.21337891 C735.18811399 257.54307846 739.25962146 264.78516312 743.41064453 271.99682617 C747.32581411 278.80255711 751.17295372 285.64436347 755 292.5 C759.77314324 301.04631721 764.59315015 309.56327182 769.46533203 318.0534668 C773.31846212 324.7789649 777.10174616 331.54193319 780.875 338.3125 C785.5069053 346.62183803 790.23709581 354.86414097 795.0625 363.0625 C800.32440809 372.01067518 805.34091301 381.066752 810.24853516 390.21337891 C814.18811399 397.54307846 818.25962146 404.78516312 822.41064453 411.99682617 C826.32581411 418.80255711 830.17295372 425.64436347 834 432.5 C838.77026301 441.04116014 843.58720661 449.55306737 848.45654297 458.03808594 C853.00002432 465.96847136 857.45051436 473.94983936 861.89892578 481.93383789 C865.87109866 489.04243491 869.93512692 496.08810935 874.15673828 503.05175781 C877 507.79012422 877 507.79012422 877 510 C684.28 510 491.56 510 293 510 C288.38 501.75 283.76 493.5 279 485 C275.34802223 478.75850592 275.34802223 478.75850592 271.671875 472.53125 C268.33998092 466.90132145 265.07852327 461.2308083 261.8125 455.5625 C261.17449463 454.45527588 260.53648926 453.34805176 259.87915039 452.20727539 C258.57110523 449.93662932 257.26324552 447.66587642 255.95556641 445.39501953 C252.80667946 439.9283002 249.65316736 434.46425113 246.5 429 C245.2499765 426.83334689 243.99997653 424.66668021 242.75 422.5 C242.13125 421.4275 241.5125 420.355 240.875 419.25 C160.25 279.5 160.25 279.5 158.37475586 276.24951172 C157.12564482 274.08442929 155.87645871 271.91939018 154.62719727 269.75439453 C151.48797691 264.31384294 148.35009437 258.87252784 145.21484375 253.4296875 C139.19252671 242.97793801 133.15330663 232.53700452 127.0625 222.125 C121.64041301 212.85436069 116.29675988 203.54063301 110.97976685 194.20953369 C106.36515971 186.11292157 101.70915114 178.04211199 97 170 C91.5964354 160.77199471 86.27347639 151.5000533 80.97949219 142.20898438 C76.36497196 134.11255867 71.70904745 126.04193491 67 118 C61.94369077 109.36502443 56.95392878 100.69393681 52 92 C46.46014067 82.27875494 40.86625068 72.59105132 35.21655273 62.93310547 C30.34842972 54.60842903 25.51909162 46.26185407 20.70849609 37.90380859 C17.74939428 32.7627663 14.78532767 27.62489612 11.79798889 22.50021362 C10.38971716 20.08387745 8.98454427 17.66574595 7.57955933 15.24749756 C6.57955298 13.5293002 5.57509225 11.81369781 4.57055664 10.09814453 C3.97106201 9.06544434 3.37156738 8.03274414 2.75390625 6.96875 C2.22095947 6.05544922 1.6880127 5.14214844 1.13891602 4.20117188 C0 2 0 2 0 0 Z " fill="#F6A528" transform="translate(823,974)"/>
<path d="M0 0 C55.43620307 -0.4966011 110.87261673 -0.9582769 166.31044006 -1.22795105 C167.13137982 -1.2319547 167.95231957 -1.23595836 168.79813629 -1.24008334 C186.64084176 -1.3268846 204.48357087 -1.40721887 222.32633525 -1.48089455 C231.07685568 -1.51706623 239.82736972 -1.55466644 248.57788086 -1.59301758 C249.8840287 -1.5987056 249.8840287 -1.5987056 251.21656337 -1.60450853 C279.42369741 -1.72801433 307.62914297 -1.94578186 335.83525472 -2.2126194 C364.82916671 -2.48641051 393.82214497 -2.66473283 422.8173278 -2.72353471 C426.9158192 -2.73189078 431.01430743 -2.74133423 435.11279488 -2.75144005 C436.32271541 -2.75437295 436.32271541 -2.75437295 437.55707878 -2.7573651 C450.52439121 -2.79159181 463.48881025 -2.92596362 476.45494414 -3.09812898 C489.50176625 -3.26921622 502.54573091 -3.33398941 515.59363466 -3.29153994 C522.66096072 -3.27146374 529.720494 -3.29819303 536.78626633 -3.45695877 C579.27430046 -4.37546876 579.27430046 -4.37546876 587.84443974 2.78460145 C594.02767947 9.1077329 597.02113812 16.95265767 599.65137494 25.23612368 C601.91784113 31.56160186 605.48695141 36.95810811 609.0625 42.625 C610.40033673 44.84896394 611.71742934 47.084299 613.03515625 49.3203125 C613.68887207 50.42149414 614.34258789 51.52267578 615.01611328 52.65722656 C618.34704727 58.26972327 621.67327375 63.88500857 625 69.5 C626.33331103 71.75001322 627.66664436 74.00001322 629 76.25 C637 89.75 645 103.25 653 116.75 C653.6602417 117.86415283 654.3204834 118.97830566 655.00073242 120.1262207 C656.3316422 122.37214111 657.66253418 124.61807207 658.9934082 126.86401367 C662.02094512 131.97314433 665.04861703 137.08219474 668.07699585 142.19082642 C675.08379219 154.01075397 682.08600739 165.83333613 689.07373047 177.66455078 C695.35518196 188.29780725 701.65399353 198.92077613 707.95166016 209.54443359 C711.30176185 215.19590084 714.6508018 220.8479973 718 226.5 C719.33332887 228.75000264 720.66666221 231.00000264 722 233.25 C730 246.75 738 260.25 746 273.75 C746.99036255 275.42122925 746.99036255 275.42122925 748.00073242 277.1262207 C749.3316422 279.37214111 750.66253418 281.61807207 751.9934082 283.86401367 C755.02094512 288.97314433 758.04861703 294.08219474 761.07699585 299.19082642 C768.08379219 311.01075397 775.08600739 322.83333613 782.07373047 334.66455078 C788.35518196 345.29780725 794.65399353 355.92077613 800.95166016 366.54443359 C804.30176185 372.19590084 807.6508018 377.8479973 811 383.5 C812.33332887 385.75000264 813.66666221 388.00000264 815 390.25 C839 430.75000001 839 430.75000001 841.0012207 434.12719727 C842.33032432 436.36996829 843.65958782 438.61264458 844.98901367 440.85522461 C848.03831282 445.99944498 851.08629372 451.14442614 854.12808228 456.29309082 C855.85539873 459.21671391 857.58377745 462.13970816 859.3125 465.0625 C859.97378906 466.18060059 860.63507812 467.29870117 861.31640625 468.45068359 C865.77491021 475.9732944 870.2929294 483.45653433 874.90356445 490.88696289 C878 495.89762443 878 495.89762443 878 497 C822.40798723 497.15402738 766.81595351 497.29731784 711.2237854 497.38108826 C710.40132702 497.38233077 709.57886864 497.38357328 708.73148727 497.38485345 C690.85830953 497.41178808 672.98512952 497.43671993 655.11194613 497.45958797 C646.34725395 497.47081424 637.58256238 497.48248319 628.81787109 497.49438477 C627.50956573 497.49615001 627.50956573 497.49615001 626.17482995 497.49795092 C597.89162542 497.53631995 569.60858246 497.60393419 541.32547585 497.68667499 C512.26686379 497.77153031 483.20834118 497.82696011 454.14960731 497.84523491 C450.0475898 497.8478284 445.94557259 497.85075913 441.84355545 497.85389519 C440.63252244 497.8548054 440.63252244 497.8548054 439.39702411 497.855734 C426.38785427 497.86637971 413.37896059 497.90814944 400.36990348 497.96148831 C387.29916206 498.01441841 374.22869508 498.03472584 361.15785019 498.0215124 C353.38691362 498.01465416 345.61697958 498.03302875 337.8462236 498.08717789 C332.05093869 498.12481104 326.25635157 498.11570225 320.4609886 498.08809005 C318.11093739 498.0842709 315.76080295 498.09583108 313.41091685 498.12394864 C310.22520321 498.15986461 307.04446201 498.14074739 303.85883141 498.10743046 C302.93765575 498.13107358 302.01648009 498.1547167 301.06739002 498.17907628 C298.4226837 498.11619019 296.46621864 497.96619999 294 497 C291.4137199 494.27791182 289.7104918 491.32341126 288 488 C287.41919678 487.0510083 286.83839355 486.1020166 286.23999023 485.12426758 C285.76762939 484.30595459 285.29526855 483.4876416 284.80859375 482.64453125 C284.26348145 481.70440186 283.71836914 480.76427246 283.15673828 479.7956543 C282.58938965 478.81121338 282.02204102 477.82677246 281.4375 476.8125 C280.19452658 474.66897144 278.95102585 472.52574858 277.70703125 470.3828125 C277.08521973 469.31063477 276.4634082 468.23845703 275.82275391 467.13378906 C273.11147195 462.47238868 270.37145586 457.82824037 267.625 453.1875 C267.09874023 452.29804688 266.57248047 451.40859375 266.03027344 450.4921875 C264.35428422 447.66100236 262.6772459 444.83044082 261 442 C259.73046756 439.85677154 258.46093635 437.71354235 257.19140625 435.5703125 C254.15401208 430.44335553 251.1157295 425.31692567 248.07696533 420.19078064 C244.38394619 413.96093367 240.6919766 407.73046486 237 401.5 C235.66667113 399.24999736 234.33333779 396.99999736 233 394.75 C225 381.25 217 367.75 209 354.25 C208.3397583 353.13584717 207.6795166 352.02169434 206.99926758 350.8737793 C205.6683578 348.62785889 204.33746582 346.38192793 203.0065918 344.13598633 C199.97905488 339.02685567 196.95138297 333.91780526 193.92300415 328.80917358 C186.91620781 316.98924603 179.91399261 305.16666387 172.92626953 293.33544922 C166.64481804 282.70219275 160.34600647 272.07922387 154.04833984 261.45556641 C150.69823815 255.80409916 147.3491982 250.1520027 144 244.5 C142.66667113 242.24999736 141.33333779 239.99999736 140 237.75 C132 224.25 124 210.75 116 197.25 C115.3397583 196.13584717 114.6795166 195.02169434 113.99926758 193.8737793 C112.6683578 191.62785889 111.33746582 189.38192793 110.0065918 187.13598633 C106.97905488 182.02685567 103.95138297 176.91780526 100.92300415 171.80917358 C93.91620781 159.98924603 86.91399261 148.16666387 79.92626953 136.33544922 C73.64481804 125.70219275 67.34600647 115.07922387 61.04833984 104.45556641 C57.69823815 98.80409916 54.3491982 93.1520027 51 87.5 C49.66667113 85.24999736 48.33333779 82.99999736 47 80.75 C39 67.25 39 67.25 36.9987793 63.87280273 C35.66967568 61.63003171 34.34041218 59.38735542 33.01098633 57.14477539 C29.96168495 52.00055126 26.91368911 46.85557384 23.87191772 41.70689392 C22.48517787 39.35974452 21.09771351 37.01302414 19.70996094 34.66647339 C18.70091027 32.96017665 17.69224937 31.25364943 16.68359375 29.54711914 C12.23973183 22.04532473 7.73127489 14.58651883 3.09643555 7.20092773 C0 2.21440524 0 2.21440524 0 0 Z " fill="#F6A628" transform="translate(2313,2529)"/>
<path d="M0 0 C0.73591659 0.00046794 1.47183317 0.00093588 2.23005026 0.00141801 C3.50536636 -0.00869481 3.50536636 -0.00869481 4.80644643 -0.01901193 C6.2184111 -0.00719037 6.2184111 -0.00719037 7.65890031 0.00487001 C8.65734848 0.00140848 9.65579664 -0.00205306 10.68450081 -0.00561948 C14.0690626 -0.01363345 17.45320612 -0.00004097 20.83774667 0.01324994 C23.27310602 0.01194315 25.70846497 0.00931906 28.14382165 0.00548245 C33.45875046 0.00015237 38.77355126 0.0042152 44.08846002 0.01639707 C51.99157742 0.034461 59.89463109 0.03540833 67.79776537 0.0327711 C81.09039966 0.02882408 94.3829893 0.03887378 107.67561059 0.05682332 C120.84230748 0.07455737 134.00898578 0.08611771 147.17569452 0.08938177 C147.99350164 0.08958798 148.81130876 0.0897942 149.65389791 0.09000667 C153.80690648 0.09102163 157.95991506 0.0919258 162.11292366 0.0927873 C191.55017185 0.09909324 220.98739573 0.11931843 250.42463022 0.14769514 C279.02749348 0.17523576 307.6303501 0.1964928 336.23322397 0.20921857 C337.1144539 0.20961315 337.99568384 0.21000773 338.90361771 0.21041427 C347.75306438 0.21436973 356.6025111 0.21819719 365.45195786 0.22193084 C383.48027372 0.22954006 401.50858915 0.23800381 419.53690439 0.24698408 C420.36586827 0.24739595 421.19483216 0.24780782 422.04891616 0.24823217 C477.43213963 0.27584724 532.81534931 0.32344663 588.198556 0.37401349 C586.87261238 4.47410622 585.40307212 8.09004555 583.2844935 11.84666974 C582.696681 12.89596662 582.1088685 13.94526349 581.5032435 15.02635724 C580.86644662 16.15170881 580.22964975 17.27706037 579.573556 18.43651349 C578.90107172 19.63408823 578.22920932 20.83201236 577.557931 22.03026349 C576.50746225 23.9053307 575.45666683 25.78020458 574.40406137 27.65407331 C570.96792491 33.77264646 567.57805617 39.91629106 564.19471078 46.06416852 C558.71858096 56.01337136 553.21873247 65.94917049 547.698556 75.87401349 C542.53619983 85.15662056 537.39019964 94.44802924 532.261056 103.74901349 C531.92961587 104.35001874 531.59817575 104.95102399 531.25669198 105.57024152 C528.90340059 109.83784619 526.55088899 114.10588049 524.198556 118.37401349 C521.51159217 123.24930922 518.82428208 128.12441363 516.136056 132.99901349 C515.63877496 133.90076307 515.63877496 133.90076307 515.13144784 134.8207298 C509.72114674 144.62989462 504.28520801 154.42463818 498.84064584 164.21483381 C492.27073896 176.03344084 485.74190932 187.87458468 479.21466928 199.71678693 C475.54525466 206.37371903 471.87221411 213.02865153 468.19983774 219.68395002 C467.20068996 221.49468787 466.20156642 223.30543909 465.20246225 225.11620099 C464.87266366 225.71392316 464.54286508 226.31164533 464.2030726 226.92748029 C462.19223327 230.57217259 460.18224156 234.21733095 458.17289072 237.86284406 C450.75191387 251.32644648 443.31244629 264.77933875 435.84064584 278.21483381 C431.29908766 286.3846439 426.77486483 294.56385281 422.261056 302.74901349 C421.92961587 303.35001874 421.59817575 303.95102399 421.25669198 304.57024152 C418.90340059 308.83784619 416.55088899 313.10588049 414.198556 317.37401349 C411.51159217 322.24930922 408.82428208 327.12441363 406.136056 331.99901349 C405.80453531 332.60017988 405.47301462 333.20134626 405.13144784 333.8207298 C399.72114674 343.62989462 394.28520801 353.42463818 388.84064584 363.21483381 C384.29908766 371.3846439 379.77486483 379.56385281 375.261056 387.74901349 C374.92961587 388.35001874 374.59817575 388.95102399 374.25669198 389.57024152 C371.90340059 393.83784619 369.55088899 398.10588049 367.198556 402.37401349 C364.51159217 407.24930922 361.82428208 412.12441363 359.136056 416.99901349 C358.80453531 417.60017988 358.47301462 418.20134626 358.13144784 418.8207298 C352.72874172 428.61612452 347.30235537 438.39819688 341.8626185 448.17308576 C338.53229313 454.1608946 335.21438501 460.15514949 331.91339975 466.15916974 C331.55513101 466.81037794 331.19686227 467.46158613 330.82773691 468.1325279 C329.10006777 471.27295781 327.3741656 474.4143307 325.651681 477.55760724 C325.02648569 478.69456037 324.40129037 479.83151349 323.75714975 481.00291974 C322.94201913 482.48900739 322.94201913 482.48900739 322.11042123 484.00511701 C321.47950571 485.11685285 320.84859018 486.22858869 320.198556 487.37401349 C319.96632298 488.19050504 319.73408996 489.0069966 319.49481957 489.84823031 C318.19500059 493.30179939 317.06628603 495.0060672 314.198556 497.37401349 C307.00432781 499.45644538 298.97523514 498.67619004 291.57187753 498.57655866 C289.18667776 498.58091783 286.80148263 498.58967072 284.4163131 498.60245032 C279.22304482 498.62017717 274.03080957 498.60676632 268.83771043 498.56606824 C261.11592571 498.50572106 253.39486362 498.5027094 245.67288608 498.51148813 C232.6837479 498.52462877 219.69511832 498.49120792 206.70612817 498.43131406 C193.8441514 498.37215781 180.98238642 498.33365757 168.1202746 498.32278593 C167.32076494 498.32209853 166.52125529 498.32141113 165.69751807 498.32070291 C161.6372661 498.31731961 157.57701394 498.31430576 153.51676158 498.31143415 C124.75267123 498.29042605 95.98885763 498.2230417 67.22492319 498.12840803 C39.27995119 498.03657482 11.3350549 497.96573336 -16.61003775 497.9233299 C-17.47131886 497.92201464 -18.33259996 497.92069938 -19.21998049 497.91934426 C-27.86926397 497.90615914 -36.51854803 497.89340099 -45.1678326 497.88095567 C-62.78766065 497.85559305 -80.40748375 497.82738053 -98.0273046 497.79744489 C-98.83744797 497.79607199 -99.64759134 497.79469909 -100.4822845 497.79328459 C-154.58878722 497.70126696 -208.69513236 497.54260579 -262.801444 497.37401349 C-261.63800472 494.43888301 -260.45988859 491.56979839 -259.02068228 488.75902326 C-258.67869299 488.08876615 -258.33670371 487.41850904 -257.98435111 486.72794111 C-257.43361678 485.65749303 -257.43361678 485.65749303 -256.8717565 484.56541974 C-256.29256209 483.43424474 -256.29256209 483.43424474 -255.70166678 482.28021772 C-254.44601415 479.83089073 -253.18652698 477.38356386 -251.926444 474.93651349 C-251.4949404 474.09678998 -251.0634368 473.25706647 -250.61885733 472.3918968 C-245.33456602 462.11268297 -239.97509277 451.88934531 -234.37029166 441.78050764 C-229.66363711 433.2392519 -225.24024517 424.5563282 -220.801444 415.87401349 C-215.47789918 405.46128083 -210.08639114 395.10870622 -204.4186315 384.87791974 C-199.69893782 376.30252002 -195.25681997 367.58853679 -190.801444 358.87401349 C-185.4540521 348.414891 -180.03872448 338.01519003 -174.348319 327.73729474 C-169.83249683 319.53458214 -165.56833714 311.2078731 -161.301444 302.87401349 C-156.59743835 293.68640992 -151.8641239 284.53023729 -146.863944 275.49901349 C-141.21889565 265.29997656 -135.920987 254.93166197 -130.61519522 244.55376203 C-125.68511683 234.91584042 -120.66516898 225.34836452 -115.4186315 215.87791974 C-110.69893834 207.30252097 -106.2568012 198.5885455 -101.801444 189.87401349 C-96.47787683 179.46129137 -91.08639173 169.10870728 -85.4186315 158.87791974 C-80.69893782 150.30252002 -76.25681997 141.58853679 -71.801444 132.87401349 C-66.4540521 122.414891 -61.03872448 112.01519003 -55.348319 101.73729474 C-50.83249683 93.53458214 -46.56833714 85.2078731 -42.301444 76.87401349 C-37.16611986 66.84398251 -31.95214093 56.879147 -26.49138541 47.02123029 C-20.6813335 36.45885387 -15.24273863 25.70038835 -9.76653189 14.9623924 C-9.19662779 13.84698827 -9.19662779 13.84698827 -8.61521048 12.70905073 C-7.89712389 11.30309132 -7.18065952 9.89630181 -6.46607108 8.48856122 C-2.38313833 0.49478413 -2.38313833 0.49478413 0 0 Z " fill="#F7A628" transform="translate(2575.801444001496,986.6259865052998)"/>
<path d="M0 0 C2.50312006 -0.18029334 4.96345469 -0.1904574 7.47300396 -0.15416243 C8.44052687 -0.15993165 9.40804978 -0.16570087 10.40489156 -0.17164492 C13.67850796 -0.18498199 16.95091853 -0.16236585 20.22447357 -0.14019587 C22.58232669 -0.14237429 24.94017864 -0.14674856 27.2980241 -0.1531417 C32.44055654 -0.16201976 37.58282866 -0.15526587 42.72531853 -0.13495066 C50.37202189 -0.10482637 58.01854245 -0.10326684 65.66529433 -0.1076606 C78.52705273 -0.11423683 91.3886829 -0.09749771 104.25040398 -0.06757357 C116.98924226 -0.03801115 129.72802716 -0.01874845 142.46689949 -0.0133095 C143.25829728 -0.0129658 144.04969508 -0.0126221 144.86507462 -0.01226799 C148.88401334 -0.01057638 152.90295211 -0.00906944 156.92189093 -0.00763361 C185.40469025 0.00287473 213.88741976 0.036579 242.37017975 0.08387945 C270.04465513 0.12978463 297.71911143 0.165211 325.39361725 0.18641851 C326.2463286 0.18707614 327.09903994 0.18773377 327.97759103 0.18841133 C336.54069338 0.1950038 345.10379589 0.20138289 353.66689852 0.20760563 C371.1116792 0.22028746 388.55645863 0.23439372 406.00123749 0.24936102 C407.20442095 0.25039069 407.20442095 0.25039069 408.43191114 0.25144117 C462.0167507 0.29746195 515.6015505 0.3767938 569.18634186 0.46107671 C567.9318912 2.98497895 566.67579142 5.50803836 565.41876373 8.03065679 C565.06836029 8.73607862 564.71795685 9.44150045 564.35693512 10.1682987 C560.98303622 16.9332581 557.36918162 23.54641275 553.68634186 30.14857671 C552.99327987 31.39707838 552.30058102 32.64578168 551.60821686 33.89467046 C550.17861012 36.47275251 548.74749257 39.04998653 547.31524811 41.62660406 C544.25687307 47.13150496 541.21782664 52.64705495 538.17801056 58.16221807 C536.51635475 61.17641416 534.85318153 64.18977286 533.19024811 67.20326421 C530.84613645 71.4516378 528.50289143 75.70048765 526.16067658 79.94990728 C518.73969973 93.4135097 511.30023215 106.86640197 503.8284317 120.30189703 C499.28687352 128.47170712 494.76265069 136.65091603 490.24884186 144.83607671 C489.91740173 145.43708196 489.58596161 146.03808721 489.24447785 146.65730474 C486.89118645 150.92490941 484.53867485 155.19294371 482.18634186 159.46107671 C479.49937803 164.33637244 476.81206794 169.21147685 474.12384186 174.08607671 C473.62656082 174.98782629 473.62656082 174.98782629 473.11923371 175.90779302 C467.7089326 185.71695784 462.27299387 195.5117014 456.8284317 205.30189703 C450.25852482 217.12050406 443.72969518 228.9616479 437.20245514 240.80385015 C433.53304052 247.46078225 429.85999998 254.11571475 426.1876236 260.77101324 C425.18847582 262.58175108 424.18935228 264.39250231 423.19024811 266.20326421 C422.86044953 266.80098638 422.53065094 267.39870855 422.19085846 268.01454351 C420.18001913 271.65923581 418.17002742 275.30439417 416.16067658 278.94990728 C408.73969973 292.4135097 401.30023215 305.86640197 393.8284317 319.30189703 C389.28687352 327.47170712 384.76265069 335.65091603 380.24884186 343.83607671 C379.91740173 344.43708196 379.58596161 345.03808721 379.24447785 345.65730474 C376.89118645 349.92490941 374.53867485 354.19294371 372.18634186 358.46107671 C369.49937803 363.33637244 366.81206794 368.21147685 364.12384186 373.08607671 C363.79232117 373.6872431 363.46080048 374.28840948 363.11923371 374.90779302 C357.7089326 384.71695784 352.27299387 394.5117014 346.8284317 404.30189703 C342.28687321 412.47170767 337.76274828 420.65096946 333.24884186 428.83607671 C332.91773407 429.43641729 332.58662628 430.03675787 332.24548493 430.65529058 C328.87239554 436.7715143 325.50121717 442.88878845 322.13218842 449.00724981 C320.7687031 451.4831063 319.40454641 453.95859256 318.04031525 456.43403814 C317.12356796 458.09812352 316.20777649 459.76273536 315.29205475 461.42738531 C308.65290981 473.47450394 301.90787315 485.45834226 295.18634186 497.46107671 C100.15634186 497.46107671 -94.87365814 497.46107671 -295.81365814 497.46107671 C-290.53842265 488.22941461 -285.25076848 479.00960526 -279.87615814 469.83607671 C-279.33898163 468.91829946 -279.33898163 468.91829946 -278.79095306 467.98198126 C-272.87248866 457.87755134 -266.82638434 447.85561714 -260.72262421 437.86229131 C-256.26805815 430.56511591 -251.90541366 423.2346123 -247.76507416 415.75404546 C-245.16427085 411.05663132 -242.44083222 406.44346073 -239.66351166 401.84950445 C-235.82199061 395.49215424 -232.0350511 389.10285166 -228.25115814 382.71107671 C-227.559924 381.54375347 -226.86868043 380.37643581 -226.17742767 379.20912359 C-225.12047147 377.42414788 -224.06357114 375.63913916 -223.00680389 373.85405157 C-220.5661679 369.73137355 -218.12402547 365.60959141 -215.68084564 361.48842046 C-209.55194555 351.14980796 -203.42571243 340.80965885 -197.31365814 330.46107671 C-190.50856362 318.93907833 -183.68567703 307.42764126 -176.86199798 295.91664312 C-173.51189629 290.26517588 -170.16285634 284.61307941 -166.81365814 278.96107671 C-165.48032927 276.71107407 -164.14699593 274.46107407 -162.81365814 272.21107671 C-162.15365814 271.09732671 -161.49365814 269.98357671 -160.81365814 268.83607671 C-138.81365814 231.71107671 -138.81365814 231.71107671 -136.81292572 228.33485601 C-135.48201594 226.0889356 -134.15112396 223.84300464 -132.82024994 221.59706304 C-129.79271302 216.48793238 -126.76504111 211.37888197 -123.73666229 206.2702503 C-117.25587819 195.33766501 -110.7768015 184.40410287 -104.31365814 173.46107671 C-97.50856362 161.93907833 -90.68567703 150.42764126 -83.86199798 138.91664312 C-80.51189629 133.26517588 -77.16285634 127.61307941 -73.81365814 121.96107671 C-72.48032927 119.71107407 -71.14699593 117.46107407 -69.81365814 115.21107671 C-68.82365814 113.54045171 -68.82365814 113.54045171 -67.81365814 111.83607671 C-45.81365814 74.71107671 -45.81365814 74.71107671 -43.81292572 71.33485601 C-42.48201594 69.0889356 -41.15112396 66.84300464 -39.82024994 64.59706304 C-36.79277928 59.4880442 -33.76517457 54.37910504 -30.73686066 49.27058599 C-23.44419425 36.96841001 -16.15508386 24.66418052 -8.88519134 12.34852789 C-8.39107757 11.51168462 -7.8969638 10.67484136 -7.38787689 9.81263921 C-6.96079437 9.08899175 -6.53371185 8.36534429 -6.09368744 7.61976812 C-5.67127777 6.90739996 -5.2488681 6.19503179 -4.81365814 5.46107671 C-4.31886334 4.17582616 -4.31886334 4.17582616 -3.81407269 2.86461095 C-1.81365814 0.46107671 -1.81365814 0.46107671 0 0 Z " fill="#F6A528" transform="translate(1104.8136581405997,2528.5389232859015)"/>
<path d="M0 0 C244.53 0 489.06 0 741 0 C741 64.02 741 128.04 741 194 C652.23 194 563.46 194 472 194 C472 413.45 472 632.9 472 859 C405.01 859 338.02 859 269 859 C269 639.55 269 420.1 269 194 C180.23 194 91.46 194 0 194 C0 129.98 0 65.96 0 0 Z " fill="#F7A729" transform="translate(891,1583)"/>
<path d="M0 0 C3.23569211 2.47840247 5.76679461 5.07616468 7 9 C7.45817887 14.681418 7.07319124 18.03561416 4 23 C3.34 23.66 2.68 24.32 2 25 C2.57759046 32.42737294 5.19994244 39.30135435 7.5625 46.3125 C7.7862027 46.98062714 8.0099054 47.64875427 8.24038696 48.33712769 C13.19627303 63.08638363 19.08649381 77.04576585 26.75 90.59375 C28 93 28 93 28 95 C28.66 95 29.32 95 30 95 C30.36351563 93.82050781 30.36351563 93.82050781 30.734375 92.6171875 C32.34540733 88.01281732 34.29581502 83.59222959 36.25 79.125 C39.13821707 72.43363207 41.99444649 65.73496561 44.625 58.9375 C44.88442383 58.28990723 45.14384766 57.64231445 45.41113281 56.97509766 C46.69173606 53.59426885 47.37116182 51.40578905 46 48 C44.46975018 43.47456608 43.7290809 40.91811474 45.125 36.1875 C47.87058824 31.52 47.87058824 31.52 51 30 C53.9375 29.5 53.9375 29.5 57 30 C59.57285724 32.172635 61.48996919 33.97993838 63 37 C63.48133705 44.34038997 63.48133705 44.34038997 61.3125 47.3125 C59.07536416 51.89330195 61.48919515 56.33205149 63 61 C64.52367957 65.25121685 66.1795064 69.4397275 67.875 73.625 C68.29652344 74.69234375 68.71804687 75.7596875 69.15234375 76.859375 C71.69127959 83.17953946 74.51341207 89.14678102 78 95 C83.84406627 86.74497863 89.52457528 78.41340293 94.75 69.75 C95.1919873 69.03593994 95.63397461 68.32187988 96.08935547 67.58618164 C98.41310451 63.99855178 98.41310451 63.99855178 98.6328125 59.91259766 C98.31957031 58.96586182 98.31957031 58.96586182 98 58 C97.10304087 53.43215259 96.64465682 50.02862501 98.1875 45.5625 C100.85925926 41.78518519 100.85925926 41.78518519 104 41 C107.73403676 41.13335846 110.20101954 41.49538076 113.375 43.5 C115.76265618 47.1733172 116.19430136 50.65542164 116 55 C114.66264855 58.41767594 113.75355275 59.61476784 110.48706055 61.28466797 C107.29032384 63.48946547 107.08726999 64.80937315 106.33203125 68.5703125 C105.95908936 70.34390137 105.95908936 70.34390137 105.57861328 72.15332031 C105.32260692 73.47709084 105.06725889 74.80098883 104.8125 76.125 C104.53021311 77.51695353 104.24614056 78.90854591 103.96044922 80.29980469 C103.32206646 83.42285803 102.69631159 86.54817818 102.07568359 89.67480469 C101.11030553 94.50089969 100.08584888 99.31313707 99.05027771 104.12460327 C98.12531274 108.42727334 97.21460174 112.73290122 96.30575562 117.03900146 C95.85803413 119.15082104 95.40602602 121.26173716 94.94937134 123.37164307 C92.47993487 134.82651761 90.45518634 145.90532428 90.38320923 157.6585083 C90.31536184 162.26253392 89.98590224 165.24780427 87 169 C84.08150547 170.45924726 81.15233407 170.15159818 77.95291138 170.15390015 C77.21898537 170.1582824 76.48505935 170.16266465 75.72889316 170.1671797 C73.25692233 170.18058945 70.78498716 170.18675138 68.31298828 170.19287109 C66.54580523 170.20077022 64.77862381 170.20903905 63.01144409 170.21765137 C57.19774928 170.243889 51.38404718 170.25917874 45.5703125 170.2734375 C43.57128774 170.27879609 41.57226303 170.28417359 39.57323837 170.28956985 C31.26074155 170.31119934 22.94824669 170.3299379 14.63572884 170.34119225 C2.70945377 170.35744391 -9.21649612 170.39065041 -21.14264858 170.44759309 C-29.52145076 170.48623981 -37.90016576 170.50581856 -46.27905476 170.51111281 C-51.28716552 170.51477294 -56.29492962 170.52686448 -61.30294418 170.55921555 C-66.01275589 170.58920432 -70.7220095 170.59564105 -75.43189621 170.58383179 C-77.16212541 170.58361029 -78.89237982 170.59197787 -80.62252045 170.60948563 C-82.9820066 170.63206567 -85.33944969 170.62393671 -87.69894409 170.60800171 C-88.38629918 170.6218838 -89.07365427 170.63576588 -89.7818383 170.65006864 C-93.39611113 170.58977616 -94.77468752 170.21529584 -97.42615223 167.68170643 C-99.44416619 164.24317755 -99.52172211 161.29261399 -99.5246582 157.41723633 C-99.83200816 147.4854939 -101.62914086 138.04093691 -103.60546875 128.32421875 C-103.97110927 126.4972777 -104.33644442 124.6702755 -104.70149231 122.84321594 C-105.46225459 119.05232861 -106.23264487 115.26354621 -107.0090332 111.47583008 C-108.00130302 106.6264883 -108.95934433 101.77104049 -109.90944958 96.91328716 C-110.65005418 93.15486673 -111.41310811 89.40126666 -112.18258095 85.64866066 C-112.54582983 83.85893429 -112.90101901 82.06755189 -113.24785423 80.27457237 C-113.73315976 77.77872975 -114.24954038 75.29129644 -114.77416992 72.8034668 C-114.90998978 72.06844437 -115.04580963 71.33342194 -115.18574524 70.5761261 C-116.05104333 66.65335225 -116.80735737 65.15100951 -120.01411438 62.63728333 C-121.49212776 61.82682808 -121.49212776 61.82682808 -123 61 C-125.46899045 58.53100955 -125.67995369 56.5069047 -126.0390625 53.1015625 C-125.96041925 48.87055566 -123.90027604 45.90027604 -121 43 C-117.96235384 42.49568037 -115.04310861 42.55057293 -112 43 C-108.96784325 45.19831364 -108.18345602 46.44963194 -107 50 C-106.79042634 53.70246793 -106.76527745 56.4060854 -108.13671875 59.8762207 C-109.19904699 63.72025064 -108.63985747 65.08657616 -107 68.66796875 C-106.52433594 69.72693359 -106.04867187 70.78589844 -105.55859375 71.87695312 C-105.04425781 72.96943359 -104.52992188 74.06191406 -104 75.1875 C-103.51660156 76.26064453 -103.03320312 77.33378906 -102.53515625 78.43945312 C-99.32896314 85.46841495 -95.79061221 92.26981507 -92 99 C-82.45455448 86.60484611 -74.5857823 66.32759246 -72 51 C-72.45375 50.401875 -72.9075 49.80375 -73.375 49.1875 C-75.65439827 46.11907925 -75.86921252 43.79283686 -76 40 C-74.69278919 36.00147282 -73.62285846 34.41975244 -70.125 32.0625 C-66.71202801 30.90208952 -65.32751387 30.68650768 -62 32 C-59.79972732 33.89467925 -58.29802389 35.40395221 -57 38 C-56.51840502 45.22392476 -56.51840502 45.22392476 -58.66894531 48.68945312 C-60.1293952 52.32182665 -59.92237813 53.72885286 -58.48608398 57.30218506 C-58.20192627 57.93980774 -57.91776855 58.57743042 -57.625 59.234375 C-57.34406494 59.91244202 -57.06312988 60.59050903 -56.77368164 61.28912354 C-55.87064736 63.4525655 -54.93574568 65.60053571 -54 67.75 C-53.40028265 69.17882415 -52.80260566 70.6085065 -52.20703125 72.0390625 C-49.07617115 79.49909289 -45.75968774 86.83147096 -42 94 C-38.15250729 90.43452246 -35.36221357 86.78889015 -32.8125 82.1875 C-32.43303223 81.50373291 -32.05356445 80.81996582 -31.66259766 80.11547852 C-24.17395555 66.20516553 -18.50287681 51.31443052 -13.625 36.3125 C-13.13169189 34.86991821 -13.13169189 34.86991821 -12.62841797 33.39819336 C-11.85393159 30.88618126 -11.20519119 28.62067709 -11 26 C-12.57308037 22.94871625 -12.57308037 22.94871625 -15 21 C-17.30741819 17.04442595 -17.22233369 13.64317539 -16.6171875 9.22265625 C-15.5974999 5.55049013 -13.71075376 3.64463782 -11 1 C-7.52252713 -0.73873643 -3.7938163 -0.59073264 0 0 Z M2 82 C3 84 3 84 3 84 Z M1 84 C-4.47519447 90.48472057 -9.86773188 97.0246698 -15.125 103.6875 C-15.61009033 104.29932129 -16.09518066 104.91114258 -16.5949707 105.54150391 C-18.94572869 108.0057368 -18.94572869 108.0057368 -20 111 C-15.38 111 -10.76 111 -6 111 C-6.44472656 112.20398437 -6.88945312 113.40796875 -7.34765625 114.6484375 C-7.91966802 116.22381417 -8.49126099 117.79934296 -9.0625 119.375 C-9.35705078 120.1690625 -9.65160156 120.963125 -9.95507812 121.78125 C-10.22900391 122.54179688 -10.50292969 123.30234375 -10.78515625 124.0859375 C-11.04176025 124.7876709 -11.29836426 125.4894043 -11.56274414 126.21240234 C-12.22571623 128.08767012 -12.22571623 128.08767012 -11 130 C-5.68323937 123.72169755 -0.4571108 117.39386749 4.5625 110.875 C5.20614502 110.04125854 5.20614502 110.04125854 5.86279297 109.19067383 C8.13312586 106.22510709 8.13312586 106.22510709 10 103 C5.71 103 1.42 103 -3 103 C-2.62746094 101.87980469 -2.25492188 100.75960938 -1.87109375 99.60546875 C-1.39276402 98.13296352 -0.91492491 96.66029885 -0.4375 95.1875 C-0.19064453 94.44951172 0.05621094 93.71152344 0.31054688 92.95117188 C1.81617332 88.51193634 1.81617332 88.51193634 1 84 Z " fill="#F6A62C" transform="translate(3063,1838)"/>
<path d="M0 0 C0 139.59 0 279.18 0 423 C-10.56 423 -21.12 423 -32 423 C-32 283.74 -32 144.48 -32 1 C-1 0 -1 0 0 0 Z " fill="#E9453A" transform="translate(3153,2019)"/>
<path d="M0 0 C10.23 0 20.46 0 31 0 C31 64.02 31 128.04 31 194 C20.77 194 10.54 194 0 194 C0 129.98 0 65.96 0 0 Z " fill="#E9453A" transform="translate(1601,1583)"/>
<path d="M0 0 C2.80254345 2.80254345 3.49992233 3.74401073 4.69482422 7.26733398 C4.9934285 8.1331459 5.29203278 8.99895782 5.59968567 9.89100647 C5.91483627 10.83318527 6.22998688 11.77536407 6.5546875 12.74609375 C6.89300095 13.73310776 7.23131439 14.72012177 7.57987976 15.73704529 C8.68596711 18.96795272 9.78036858 22.20269542 10.875 25.4375 C12.39805246 29.89860893 13.92728976 34.35758725 15.45703125 38.81640625 C15.83913254 39.93253296 16.22123383 41.04865967 16.61491394 42.1986084 C20.66398839 53.99708782 24.92070975 65.71772376 29.23974609 77.41967773 C29.74448845 78.79800616 30.24920984 80.17634225 30.75390625 81.5546875 C31.40854858 83.32561768 31.40854858 83.32561768 32.07641602 85.13232422 C33 88 33 88 33 91 C22.11 91 11.22 91 0 91 C0 60.97 0 30.94 0 0 Z " fill="#EA4B3D" transform="translate(2369,2351)"/>
<path d="M0 0 C11.88 0 23.76 0 36 0 C30.87281452 10.25437095 25.70187602 20.37510779 20.125 30.375 C19.42668839 31.63170695 18.72861197 32.88854461 18.03076172 34.14550781 C16.99134247 36.01727769 15.95154609 37.88883019 14.91018677 39.75952148 C12.86053777 43.44249719 10.82880575 47.13461335 8.8125 50.8359375 C8.35085449 51.67979004 7.88920898 52.52364258 7.41357422 53.39306641 C6.57780381 54.92177567 5.74585881 56.45258498 4.91845703 57.98583984 C2.2251637 62.88741815 2.2251637 62.88741815 0 64 C0 42.88 0 21.76 0 0 Z " fill="#EA4B3E" transform="translate(1638,2529)"/>
<path d="M0 0 C0.66 0 1.32 0 2 0 C2.38631592 0.69746338 2.77263184 1.39492676 3.1706543 2.11352539 C10.09884605 14.6165946 17.03761995 27.11341123 24.0625 39.5625 C24.57321045 40.46943604 25.0839209 41.37637207 25.61010742 42.31079102 C28.60252442 47.6026494 31.68966271 52.81880517 34.89624023 57.98413086 C36 60 36 60 36 62 C24.12 62 12.24 62 0 62 C0 41.54 0 21.08 0 0 Z " fill="#EA4B3D" transform="translate(1664,1422)"/>
<path d="M0 0 C4.02286045 1.49492632 5.29652859 3.67566721 7.35546875 7.35546875 C7.97325195 8.44537109 8.59103516 9.53527344 9.22753906 10.65820312 C9.8808783 11.83462491 10.53419822 13.01105742 11.1875 14.1875 C11.86428971 15.3867854 12.54235567 16.58535144 13.22167969 17.78320312 C14.55601374 20.13658808 15.8865417 22.49205201 17.21435547 24.84912109 C19.33966235 28.59935497 21.51918822 32.31178727 23.75 36 C24.42417969 37.11632813 25.09835938 38.23265625 25.79296875 39.3828125 C27.51726885 42.21553366 29.25247404 45.04150575 30.98828125 47.8671875 C31.75350098 49.11435547 31.75350098 49.11435547 32.53417969 50.38671875 C33.53636261 52.01838782 34.54084169 53.64864928 35.54785156 55.27734375 C35.99741211 56.00824219 36.44697266 56.73914062 36.91015625 57.4921875 C37.31371338 58.14558105 37.71727051 58.79897461 38.13305664 59.47216797 C39 61 39 61 39 62 C26.79 62 14.58 62 2 62 C1.93941406 57.77574219 1.87882812 53.55148438 1.81640625 49.19921875 C1.76544306 45.83228918 1.71352403 42.46537737 1.66095734 39.0984726 C1.60571902 35.54362513 1.55216753 31.98877053 1.50268555 28.43383789 C1.44584148 24.35554042 1.38133199 20.27739562 1.31640625 16.19921875 C1.29969376 14.92414963 1.28298126 13.64908051 1.26576233 12.33537292 C1.24581711 11.15437515 1.22587189 9.97337738 1.20532227 8.7565918 C1.18977798 7.71512497 1.1742337 6.67365814 1.15821838 5.60063171 C1.10531325 2.88588267 1.10531325 2.88588267 0 0 Z " fill="#EA4B3E" transform="translate(3152,2964)"/>
<path d="M0 0 C11.55 0 23.1 0 35 0 C33.54384448 4.36846656 32.28703972 7.56970274 30.0859375 11.47265625 C29.20264771 13.04974365 29.20264771 13.04974365 28.30151367 14.65869141 C27.66576416 15.78194824 27.03001465 16.90520508 26.375 18.0625 C25.37058894 19.84825107 24.36784755 21.63493198 23.36534119 23.42175293 C22.66560156 24.66889773 21.9652851 25.91571904 21.26441956 27.16223145 C18.64896378 31.82040787 16.07618109 36.50073573 13.51953125 41.19140625 C12.78797817 42.53054762 12.05637075 43.86965931 11.32470703 45.20874023 C10.2581348 47.16113692 9.19326224 49.11436113 8.13372803 51.07058716 C7.150092 52.88574724 6.15975762 54.69709775 5.16796875 56.5078125 C4.60360107 57.54566895 4.0392334 58.58352539 3.45776367 59.65283203 C2 62 2 62 0 63 C0 42.21 0 21.42 0 0 Z " fill="#EA4B3E" transform="translate(3129,987)"/>
<path d="M0 0 C3.60351091 0.27719315 6.28950409 0.55126574 9.375 2.5 C11.76265618 6.1733172 12.19430136 9.65542164 12 14 C10.34194352 18.23725546 8.04969604 20.02707116 4 22 C3.34 22 2.68 22 2 22 C2 15.4 2 8.8 2 2 C1.34 2 0.68 2 0 2 C0 1.34 0 0.68 0 0 Z " fill="#EA5043" transform="translate(3167,1879)"/>
<path d="M0 0 C0.99 0.33 1.98 0.66 3 1 C4.04691167 3.30615472 4.89744996 5.48336816 5.6875 7.875 C5.91244141 8.51308594 6.13738281 9.15117187 6.36914062 9.80859375 C7.350435 12.66597979 8 14.95856532 8 18 C5.69 18 3.38 18 1 18 C0.67 12.06 0.34 6.12 0 0 Z " fill="#EA5049" transform="translate(2394,2424)"/>
<path d="M0 0 C4.28115853 4.77513836 7.03759841 10.36156231 10 16 C7.03 16 4.06 16 1 16 C1 11.71 1 7.42 1 3 C0.34 2.67 -0.32 2.34 -1 2 C-0.67 1.34 -0.34 0.68 0 0 Z " fill="#EB544D" transform="translate(3181,3010)"/>
<path d="M0 0 C2.27138348 2.93301771 4.26869942 5.95068793 6.1875 9.125 C6.71730469 9.99382812 7.24710938 10.86265625 7.79296875 11.7578125 C9 14 9 14 9 16 C6.36 16 3.72 16 1 16 C1 11.71 1 7.42 1 3 C0.34 2.67 -0.32 2.34 -1 2 C-0.67 1.34 -0.34 0.68 0 0 Z " fill="#EB524B" transform="translate(1691,1468)"/>
<path d="M0 0 C2.64 0 5.28 0 8 0 C6.58707905 4.8274799 4.57025846 8.7162359 2 13 C1.34 12.67 0.68 12.34 0 12 C0 8.04 0 4.08 0 0 Z " fill="#EB504A" transform="translate(3156,987)"/>
<path d="M0 0 C2.20080053 3.3012008 2.21218749 3.89101158 1.75 7.625 C1.66234375 8.42164063 1.5746875 9.21828125 1.484375 10.0390625 C1.32453125 10.68617187 1.1646875 11.33328125 1 12 C0.01 12.495 0.01 12.495 -1 13 C-1.02696365 11.20841511 -1.04637917 9.41671527 -1.0625 7.625 C-1.07410156 6.62726563 -1.08570312 5.62953125 -1.09765625 4.6015625 C-1 2 -1 2 0 0 Z " fill="#ED685C" transform="translate(3177,1884)"/>
</svg>
