<?xml version="1.0" encoding="UTF-8"?>
<svg version="1.1" xmlns="http://www.w3.org/2000/svg" width="4000" height="4000">
<path d="M0 0 C5.14193318 2.07481514 8.77308708 5.63351108 11.5625 10.4375 C11.16242631 14.47100886 9.67083403 17.37232663 7.640625 20.83984375 C6.73111084 22.40472534 6.73111084 22.40472534 5.80322266 24.0012207 C4.81781494 25.67124146 4.81781494 25.67124146 3.8125 27.375 C3.12621878 28.54938947 2.44051686 29.72411765 1.75537109 30.89916992 C-0.29933066 34.41763695 -2.36745401 37.92803816 -4.4375 41.4375 C-5.00114258 42.39495117 -5.56478516 43.35240234 -6.14550781 44.33886719 C-8.75395329 48.76790771 -11.37050284 53.19206653 -13.9921875 57.61328125 C-17.99765887 64.37413119 -21.96691628 71.15613375 -25.9375 77.9375 C-30.92093528 86.44734104 -35.91425574 94.95106951 -40.9375 103.4375 C-45.87452507 111.77977071 -50.78682757 120.13634253 -55.6875 128.5 C-56.0438855 129.10820587 -56.400271 129.71641174 -56.76745605 130.3430481 C-59.324692 134.70754059 -61.8811765 139.07247304 -64.4375 143.4375 C-67.35366047 148.41696331 -70.2701368 153.39624122 -73.1875 158.375 C-73.54420776 158.98376984 -73.90091553 159.59253967 -74.26843262 160.21975708 C-79.32445784 168.84719973 -84.40129267 177.46210825 -89.49414062 186.06787109 C-93.91017827 193.53456852 -98.3018507 201.01543238 -102.6875 208.5 C-103.04488251 209.10986755 -103.40226501 209.71973511 -103.77047729 210.3480835 C-107.40483435 216.55044465 -111.03745524 222.75382105 -114.66874695 228.95797729 C-116.44534849 231.99310103 -118.22250289 235.02790068 -120 238.0625 C-120.35087677 238.66155151 -120.70175354 239.26060303 -121.06326294 239.87780762 C-126.22316603 248.68488839 -131.41441022 257.47281005 -136.625 266.25 C-142.73860482 276.54894683 -148.79452448 286.87995249 -154.8203125 297.23046875 C-158.78348523 304.03650201 -162.76555381 310.8314101 -166.75 317.625 C-167.1045224 318.22947968 -167.4590448 318.83395935 -167.8243103 319.45675659 C-169.26777549 321.91786781 -170.71127376 324.37895961 -172.15489197 326.83998108 C-174.71818618 331.2100672 -177.27945853 335.58133401 -179.83984375 339.953125 C-186.70314122 351.67081678 -193.57804296 363.38122802 -200.49414062 375.06787109 C-204.91017827 382.53456852 -209.3018507 390.01543238 -213.6875 397.5 C-214.04488251 398.10986755 -214.40226501 398.71973511 -214.77047729 399.3480835 C-218.40483435 405.55044465 -222.03745524 411.75382105 -225.66874695 417.95797729 C-227.44534849 420.99310103 -229.22250289 424.02790068 -231 427.0625 C-231.52631516 427.96107727 -231.52631516 427.96107727 -232.06326294 428.87780762 C-237.22316603 437.68488839 -242.41441022 446.47281005 -247.625 455.25 C-253.73711963 465.54644489 -259.79135355 475.87508018 -265.81640625 486.22265625 C-269.80456236 493.07128294 -273.8057648 499.91223233 -277.8125 506.75 C-278.16896606 507.358367 -278.52543213 507.96673401 -278.8927002 508.59353638 C-284.11005362 517.49500123 -289.35815028 526.37773306 -294.625 535.25 C-300.73858731 545.54895736 -306.79452438 555.87995232 -312.8203125 566.23046875 C-316.78348523 573.03650201 -320.76555381 579.8314101 -324.75 586.625 C-325.1045224 587.22947968 -325.4590448 587.83395935 -325.8243103 588.45675659 C-327.26777549 590.91786781 -328.71127376 593.37895961 -330.15489197 595.83998108 C-332.71818618 600.2100672 -335.27945853 604.58133401 -337.83984375 608.953125 C-344.70314122 620.67081678 -351.57804296 632.38122802 -358.49414062 644.06787109 C-362.91017827 651.53456852 -367.3018507 659.01543238 -371.6875 666.5 C-372.04488251 667.10986755 -372.40226501 667.71973511 -372.77047729 668.3480835 C-376.40483435 674.55044465 -380.03745524 680.75382105 -383.66874695 686.95797729 C-385.44534849 689.99310103 -387.22250289 693.02790068 -389 696.0625 C-389.35087677 696.66155151 -389.70175354 697.26060303 -390.06326294 697.87780762 C-395.22316603 706.68488839 -400.41441022 715.47281005 -405.625 724.25 C-411.73860482 734.54894683 -417.79452448 744.87995249 -423.8203125 755.23046875 C-427.78348523 762.03650201 -431.76555381 768.8314101 -435.75 775.625 C-436.1045224 776.22947968 -436.4590448 776.83395935 -436.8243103 777.45675659 C-438.26777549 779.91786781 -439.71127376 782.37895961 -441.15489197 784.83998108 C-443.71818618 789.2100672 -446.27945663 793.58133512 -448.83984375 797.953125 C-460.91277723 818.56503143 -460.91277723 818.56503143 -466.33569336 827.72607422 C-467.22140015 829.22291748 -467.22140015 829.22291748 -468.125 830.75 C-468.57298554 831.47401707 -469.02097108 832.19803414 -469.48253195 832.94399112 C-472.3994371 837.73166863 -474.94601581 842.46412608 -477.12606174 847.63274479 C-484.16422341 863.34140402 -484.16422341 863.34140402 -491.22848164 866.80651164 C-498.86587103 868.84529396 -506.67753257 868.55827123 -514.51972284 868.29295254 C-518.1207308 868.19828803 -521.72052366 868.2451351 -525.32228392 868.27341461 C-531.65158509 868.30400715 -537.97522196 868.24595266 -544.30345893 868.12978935 C-553.77782316 867.95663577 -563.24910481 867.92531065 -572.72486445 867.92234875 C-588.87411463 867.91373999 -605.02084247 867.79522498 -621.1690464 867.61816406 C-644.88727258 867.35952036 -668.60468945 867.26137937 -692.3241308 867.19301519 C-702.05573482 867.16436089 -711.7873242 867.13100636 -721.51891232 867.09744263 C-723.14998672 867.09188727 -723.14998672 867.09188727 -724.81401212 867.08621968 C-741.73960334 867.02790964 -758.66493694 866.94265978 -775.59033298 866.8432312 C-841.03304484 866.46203951 -906.46989027 866.40815507 -971.9134184 866.58766332 C-975.57046247 866.59767136 -979.22750696 866.60750955 -982.88455161 866.61730075 C-1005.05330519 866.67677829 -1027.22204874 866.73949257 -1049.39077985 866.80683422 C-1084.39198952 866.91292272 -1119.39320033 866.99823076 -1154.39450073 867.06811523 C-1155.64139842 867.07061046 -1156.8882961 867.07310568 -1158.17297856 867.07567652 C-1170.79834936 867.10091197 -1183.42372092 867.12575286 -1196.04909305 867.15031213 C-1212.50094758 867.18233104 -1228.95279911 867.21568858 -1245.40464973 867.24964905 C-1247.28709351 867.25353193 -1247.28709351 867.25353193 -1249.20756645 867.25749325 C-1254.28366849 867.26796374 -1259.35977051 867.27843736 -1264.43587252 867.2889183 C-1299.13481741 867.3605402 -1333.83376483 867.43091126 -1368.53271484 867.5 C-1369.8278374 867.50257877 -1371.12295996 867.50515755 -1372.45732866 867.50781447 C-1382.92646641 867.52865585 -1393.39560419 867.54947961 -1403.86474199 867.57029855 C-1447.43448166 867.65695631 -1491.00421556 867.7461493 -1534.57394429 867.83814922 C-1540.75237218 867.85119282 -1546.93080013 867.86420542 -1553.10922813 867.87719727 C-1554.32281517 867.87974964 -1555.5364022 867.88230202 -1556.7867646 867.88493174 C-1573.51114683 867.92003876 -1590.23553167 867.95341626 -1606.95992036 867.98529154 C-1616.13389284 868.0028054 -1625.30786476 868.02061002 -1634.48183673 868.03839099 C-1637.85217676 868.0448977 -1641.22251693 868.05132949 -1644.59285713 868.05775166 C-1668.07785278 868.10272422 -1691.5627664 868.15624316 -1715.0476656 868.23791504 C-1717.06888361 868.24486491 -1719.09010165 868.2518069 -1721.11131972 868.2587409 C-1723.11173072 868.26562257 -1725.11214172 868.2725076 -1727.1125527 868.27939606 C-1728.09494072 868.28277873 -1729.07732874 868.28616141 -1730.08948609 868.2896466 C-1734.97012894 868.30649906 -1739.85077059 868.32361695 -1744.73141073 868.34123516 C-1766.90150934 868.42043791 -1789.06979403 868.44183983 -1811.23986489 868.3494716 C-1812.03563534 868.34617104 -1812.83140578 868.34287048 -1813.65129048 868.33946991 C-1814.44059083 868.33619461 -1815.22989119 868.33291931 -1816.04310974 868.32954475 C-1825.80934195 868.29106225 -1835.57560938 868.28928778 -1845.3419058 868.29410219 C-1852.06785864 868.29584359 -1858.79226689 868.27780791 -1865.5179764 868.20884705 C-1902.60964374 867.63619216 -1902.60964374 867.63619216 -1937.27168304 879.44608307 C-1939.4375 880.4375 -1939.4375 880.4375 -1942.4375 880.4375 C-1942.84258789 881.5035144 -1942.84258789 881.5035144 -1943.25585938 882.59106445 C-1944.46318033 885.49936093 -1945.84728429 888.21036013 -1947.34375 890.98046875 C-1947.91730225 892.04450928 -1948.49085449 893.1085498 -1949.08178711 894.20483398 C-1949.69417236 895.33348877 -1950.30655762 896.46214355 -1950.9375 897.625 C-1951.57765069 898.80862356 -1952.21770512 899.9922992 -1952.85766602 901.17602539 C-1957.52452823 909.79788561 -1962.25621856 918.38190875 -1967.04150391 926.93847656 C-1969.8900419 932.03774815 -1972.72554304 937.14427929 -1975.5625 942.25 C-1976.19865234 943.39476807 -1976.83480469 944.53953613 -1977.49023438 945.71899414 C-1984.15973425 957.72519963 -1990.79163091 969.75209094 -1997.42138672 981.78027344 C-2000.4254275 987.23010606 -2003.43206347 992.67850684 -2006.43850708 998.12701416 C-2008.10494466 1001.14711729 -2009.77121379 1004.16731335 -2011.4375 1007.1875 C-2012.10416586 1008.39583378 -2012.77083253 1009.60416711 -2013.4375 1010.8125 C-2013.7675 1011.410625 -2014.0975 1012.00875 -2014.4375 1012.625 C-2049.4375 1076.06250001 -2049.4375 1076.06250001 -2050.43748474 1077.87496948 C-2051.1042055 1079.08340276 -2051.77092303 1080.29183782 -2052.43763733 1081.50027466 C-2054.10344998 1084.51959344 -2055.76931854 1087.53888134 -2057.43530273 1090.55810547 C-2060.44554592 1096.01362814 -2063.45537132 1101.46937923 -2066.46313477 1106.92626953 C-2073.3139006 1119.35539778 -2080.17273334 1131.77993127 -2087.0625 1144.1875 C-2087.59883057 1145.15381348 -2088.13516113 1146.12012695 -2088.68774414 1147.11572266 C-2095.24089095 1158.90657903 -2101.84638174 1170.66764596 -2108.4375 1182.4375 C-1633.2375 1182.7675 -1158.0375 1183.0975 -668.4375 1183.4375 C-670.4175 1187.0675 -672.3975 1190.6975 -674.4375 1194.4375 C-675.3346875 1196.10167969 -676.231875 1197.76585937 -677.15625 1199.48046875 C-682.93886232 1210.19311547 -688.91313501 1220.76877554 -695.08398438 1231.26245117 C-699.29487477 1238.43722266 -703.39332185 1245.66759485 -707.4375 1252.9375 C-712.5736321 1262.16691293 -717.83962783 1271.30987396 -723.1875 1280.41796875 C-727.35993959 1287.5427819 -731.42245244 1294.72296141 -735.4375 1301.9375 C-740.57381389 1311.16681402 -745.83962535 1320.30986973 -751.1875 1329.41796875 C-755.35993959 1336.5427819 -759.42245244 1343.72296141 -763.4375 1350.9375 C-768.57381389 1360.16681402 -773.83962535 1369.30986973 -779.1875 1378.41796875 C-783.35993959 1385.5427819 -787.42245244 1392.72296141 -791.4375 1399.9375 C-796.57381389 1409.16681402 -801.83962535 1418.30986973 -807.1875 1427.41796875 C-811.35993959 1434.5427819 -815.42245244 1441.72296141 -819.4375 1448.9375 C-824.57381389 1458.16681402 -829.83962535 1467.30986973 -835.1875 1476.41796875 C-839.35993959 1483.5427819 -843.42245244 1490.72296141 -847.4375 1497.9375 C-852.57381389 1507.16681402 -857.83962535 1516.30986973 -863.1875 1525.41796875 C-867.35993959 1532.5427819 -871.42245244 1539.72296141 -875.4375 1546.9375 C-880.01322192 1555.15950032 -884.67337783 1563.3232099 -889.4375 1571.4375 C-894.75589275 1580.49934259 -899.93621109 1589.62942699 -905.05126953 1598.80737305 C-909.425016 1606.64846857 -913.85237167 1614.45780922 -918.3125 1622.25 C-918.64586365 1622.83245483 -918.97922729 1623.41490967 -919.32269287 1624.01501465 C-921.01623714 1626.97343532 -922.71057826 1629.93139866 -924.40527344 1632.88916016 C-927.42118289 1638.15371057 -930.43010211 1643.422255 -933.43951416 1648.69052124 C-935.10521971 1651.60634639 -936.77138314 1654.52190987 -938.4375 1657.4375 C-939.10416886 1658.60416541 -939.77083552 1659.77083208 -940.4375 1660.9375 C-973.4375 1718.6875 -1006.4375 1776.4375 -1104.4375 1947.9375 C-1104.93248489 1948.80372734 -1104.93248489 1948.80372734 -1105.43746948 1949.68745422 C-1106.10422911 1950.85427849 -1106.7709975 1952.02109774 -1107.43777466 1953.18791199 C-1109.10309088 1956.10212646 -1110.76825537 1959.01642742 -1112.43310547 1961.9309082 C-1115.44901664 1967.21020515 -1118.46607056 1972.48883303 -1121.4887085 1977.76428223 C-1128.35682909 1989.75151169 -1135.19400089 2001.7545334 -1141.9375 2013.8125 C-1142.51854492 2014.84624756 -1143.09958984 2015.87999512 -1143.69824219 2016.94506836 C-1146.11515052 2021.24961713 -1148.5164952 2025.55514344 -1150.8046875 2029.9296875 C-1154.32006931 2036.58099204 -1157.18714116 2041.67253265 -1164.4375 2044.4375 C-1165.38367187 2044.79972656 -1166.32984375 2045.16195312 -1167.3046875 2045.53515625 C-1175.51478761 2048.33542267 -1183.82554785 2049.63037199 -1192.4375 2050.4375 C-1193.64768799 2050.56131798 -1193.64768799 2050.56131798 -1194.88232422 2050.68763733 C-1205.96102661 2051.69094892 -1217.04087527 2051.61994197 -1228.15625 2051.640625 C-1230.46170053 2051.64745015 -1232.76715097 2051.65430738 -1235.07260132 2051.66119385 C-1241.36837781 2051.67714473 -1247.66412766 2051.68338813 -1253.95992279 2051.68588257 C-1256.61961904 2051.6869641 -1259.2793084 2051.68854522 -1261.93900299 2051.69107056 C-1307.95872405 2051.73302955 -1353.9416966 2051.02773778 -1399.94865417 2049.9907546 C-1446.04070184 2048.95235619 -1492.11132903 2048.12377856 -1538.21665192 2048.12564087 C-1541.87879795 2048.12501011 -1545.54092203 2048.1205388 -1549.20306396 2048.11523438 C-1579.38347788 2048.03780115 -1579.38347788 2048.03780115 -1609.53125 2049.26953125 C-1610.64665161 2049.33839035 -1611.76205322 2049.40724945 -1612.91125488 2049.47819519 C-1623.62575622 2050.20892869 -1623.62575622 2050.20892869 -1632.50634766 2055.56860352 C-1632.95026855 2056.39287842 -1633.39418945 2057.21715332 -1633.8515625 2058.06640625 C-1634.37669434 2059.00516602 -1634.90182617 2059.94392578 -1635.44287109 2060.91113281 C-1635.97734863 2061.93045898 -1636.51182617 2062.94978516 -1637.0625 2064 C-1638.27560209 2066.1942535 -1639.48915902 2068.38825558 -1640.703125 2070.58203125 C-1641.31865234 2071.71721191 -1641.93417969 2072.85239258 -1642.56835938 2074.02197266 C-1645.54916771 2079.46887817 -1648.68890248 2084.82167752 -1651.8125 2090.1875 C-1657.4127775 2099.88682191 -1662.96645068 2109.61249322 -1668.5145874 2119.3416748 C-1673.67147645 2128.38185523 -1678.89283409 2137.38257624 -1684.15087891 2146.36425781 C-1688.95161596 2154.57665175 -1693.67890258 2162.83011375 -1698.390625 2171.09375 C-1703.21542535 2179.55570754 -1708.06318639 2188.00392932 -1712.9375 2196.4375 C-1718.129905 2205.42290936 -1723.29416184 2214.42395334 -1728.4375 2223.4375 C-1735.44691327 2235.72002847 -1742.50322494 2247.97507922 -1749.57861328 2260.21972656 C-1752.70074603 2265.62420641 -1755.81895881 2271.03094718 -1758.9375 2276.4375 C-1762.67386915 2282.91516885 -1766.41098347 2289.39239983 -1770.15234375 2295.8671875 C-1776.60769142 2307.04199102 -1783.04079344 2318.22904303 -1789.4375 2329.4375 C-1796.44711705 2341.71991289 -1803.5032242 2353.97507795 -1810.57861328 2366.21972656 C-1813.70074603 2371.62420641 -1816.81895881 2377.03094718 -1819.9375 2382.4375 C-1823.67386915 2388.91516885 -1827.41098347 2395.39239983 -1831.15234375 2401.8671875 C-1837.60769142 2413.04199102 -1844.04079344 2424.22904303 -1850.4375 2435.4375 C-1858.67347059 2449.86875789 -1866.97798868 2464.2600623 -1875.29199219 2478.64648438 C-1877.15352672 2481.86818275 -1879.01448839 2485.09021079 -1880.875 2488.3125 C-1881.49052734 2489.37855469 -1882.10605469 2490.44460937 -1882.74023438 2491.54296875 C-1887.69203042 2500.12745597 -1892.60574868 2508.73330293 -1897.51486206 2517.34222412 C-1902.67166608 2526.38221708 -1907.89293769 2535.38275321 -1913.15087891 2544.36425781 C-1917.95161596 2552.57665175 -1922.67890258 2560.83011375 -1927.390625 2569.09375 C-1932.82683845 2578.62803205 -1938.29845106 2588.14132204 -1943.79052734 2597.64355469 C-1948.0448718 2605.00971837 -1952.27099055 2612.39162189 -1956.484375 2619.78125 C-1962.31618831 2630.00935335 -1968.2025223 2640.20340016 -1974.15087891 2650.36425781 C-1978.95161596 2658.57665175 -1983.67890258 2666.83011375 -1988.390625 2675.09375 C-1993.82683845 2684.62803205 -1999.29845106 2694.14132204 -2004.79052734 2703.64355469 C-2009.0448718 2711.00971837 -2013.27099055 2718.39162189 -2017.484375 2725.78125 C-2023.31618831 2736.00935335 -2029.2025223 2746.20340016 -2035.15087891 2756.36425781 C-2039.95161596 2764.57665175 -2044.67890258 2772.83011375 -2049.390625 2781.09375 C-2054.82683845 2790.62803205 -2060.29845106 2800.14132204 -2065.79052734 2809.64355469 C-2070.0448718 2817.00971837 -2074.27099055 2824.39162189 -2078.484375 2831.78125 C-2083.75614109 2841.02711668 -2089.06038069 2850.25235513 -2094.4375 2859.4375 C-2099.67667025 2868.3874971 -2104.85589794 2877.37015021 -2110 2886.375 C-2110.33797607 2886.96627686 -2110.67595215 2887.55755371 -2111.02416992 2888.16674805 C-2114.87165933 2894.90008997 -2118.69311981 2901.64621144 -2122.4375 2908.4375 C-2123.0975 2908.4375 -2123.7575 2908.4375 -2124.4375 2908.4375 C-2124.8185791 2907.74527344 -2125.1996582 2907.05304687 -2125.59228516 2906.33984375 C-2132.98867222 2892.92159987 -2140.46961875 2879.57076746 -2148.23486328 2866.36132812 C-2152.39419651 2859.26977599 -2156.44006043 2852.12141745 -2160.4375 2844.9375 C-2165.013164 2836.7154741 -2169.67320748 2828.5516857 -2174.4375 2820.4375 C-2179.20179563 2812.32330901 -2183.86161851 2804.15940812 -2188.4375 2795.9375 C-2193.53580924 2786.78026685 -2198.75058055 2777.7005683 -2204.05126953 2768.65917969 C-2208.52028735 2761.0295119 -2212.93111631 2753.36772514 -2217.3125 2745.6875 C-2217.64586365 2745.10318207 -2217.97922729 2744.51886414 -2218.32269287 2743.9168396 C-2220.0175349 2740.9455802 -2221.71157984 2737.97386728 -2223.40527344 2735.00195312 C-2226.41220744 2729.72656705 -2229.42609617 2724.45515562 -2232.43951416 2719.18347168 C-2234.1057993 2716.26831342 -2235.77162627 2713.35289337 -2237.4375 2710.4375 C-2238.10416448 2709.27083208 -2238.77083114 2708.10416541 -2239.4375 2706.9375 C-2246.10416667 2695.27083333 -2252.77083333 2683.60416667 -2259.4375 2671.9375 C-2259.76749496 2671.36001007 -2260.09748993 2670.78252014 -2260.43748474 2670.18753052 C-2261.10420665 2669.02076463 -2261.77092418 2667.85399624 -2262.43763733 2666.68722534 C-2264.10342284 2663.77205622 -2265.76928427 2660.85693053 -2267.43530273 2657.94189453 C-2270.44590313 2652.67406805 -2273.45594147 2647.40592441 -2276.46316528 2642.13616943 C-2283.26227958 2630.22173855 -2290.07503173 2618.31561196 -2296.9375 2606.4375 C-2304.13962794 2593.97147777 -2311.28579676 2581.47388756 -2318.42138672 2568.96972656 C-2321.42483176 2563.7070208 -2324.43179965 2558.44632814 -2327.43850708 2553.18548584 C-2329.10498282 2550.26957328 -2330.77122982 2547.35353002 -2332.4375 2544.4375 C-2333.10416557 2543.27083271 -2333.77083224 2542.10416604 -2334.4375 2540.9375 C-2341.10416667 2529.27083333 -2347.77083333 2517.60416667 -2354.4375 2505.9375 C-2354.76749496 2505.36001007 -2355.09748993 2504.78252014 -2355.43748474 2504.18753052 C-2356.10420665 2503.02076463 -2356.77092418 2501.85399624 -2357.43763733 2500.68722534 C-2359.10342284 2497.77205622 -2360.76928427 2494.85693053 -2362.43530273 2491.94189453 C-2365.44590313 2486.67406805 -2368.45594147 2481.40592441 -2371.46316528 2476.13616943 C-2378.26227958 2464.22173855 -2385.07503173 2452.31561196 -2391.9375 2440.4375 C-2399.13962794 2427.97147777 -2406.28579676 2415.47388756 -2413.42138672 2402.96972656 C-2416.42483176 2397.7070208 -2419.43179965 2392.44632814 -2422.43850708 2387.18548584 C-2424.10498282 2384.26957328 -2425.77122982 2381.35353002 -2427.4375 2378.4375 C-2428.10416557 2377.27083271 -2428.77083224 2376.10416604 -2429.4375 2374.9375 C-2436.10416667 2363.27083333 -2442.77083333 2351.60416667 -2449.4375 2339.9375 C-2449.76749496 2339.36001007 -2450.09748993 2338.78252014 -2450.43748474 2338.18753052 C-2451.10420665 2337.02076463 -2451.77092418 2335.85399624 -2452.43763733 2334.68722534 C-2454.10342284 2331.77205622 -2455.76928427 2328.85693053 -2457.43530273 2325.94189453 C-2460.44590313 2320.67406805 -2463.45594147 2315.40592441 -2466.46316528 2310.13616943 C-2473.26227958 2298.22173855 -2480.07503173 2286.31561196 -2486.9375 2274.4375 C-2494.13962794 2261.97147777 -2501.28579676 2249.47388756 -2508.42138672 2236.96972656 C-2511.42483176 2231.7070208 -2514.43179965 2226.44632814 -2517.43850708 2221.18548584 C-2519.10498282 2218.26957328 -2520.77122982 2215.35353002 -2522.4375 2212.4375 C-2523.10416557 2211.27083271 -2523.77083224 2210.10416604 -2524.4375 2208.9375 C-2531.10416667 2197.27083333 -2537.77083333 2185.60416667 -2544.4375 2173.9375 C-2544.76749496 2173.36001007 -2545.09748993 2172.78252014 -2545.43748474 2172.18753052 C-2546.10420665 2171.02076463 -2546.77092418 2169.85399624 -2547.43763733 2168.68722534 C-2549.10342284 2165.77205622 -2550.76928427 2162.85693053 -2552.43530273 2159.94189453 C-2555.44590313 2154.67406805 -2558.45594147 2149.40592441 -2561.46316528 2144.13616943 C-2568.26227958 2132.22173855 -2575.07503173 2120.31561196 -2581.9375 2108.4375 C-2587.77187041 2098.33890248 -2593.58532534 2088.22852226 -2599.34936523 2078.08959961 C-2602.48974187 2072.5675519 -2605.64887379 2067.05923266 -2608.87846375 2061.58874512 C-2610.39542808 2059.01692007 -2611.90183373 2056.43898558 -2613.40750122 2053.86053467 C-2614.13000884 2052.63009807 -2614.85770001 2051.40268912 -2615.59078979 2050.17852783 C-2616.60612867 2048.4822307 -2617.60235015 2046.77453469 -2618.59765625 2045.06640625 C-2619.45822632 2043.6134314 -2619.45822632 2043.6134314 -2620.33618164 2042.13110352 C-2621.65096928 2038.91539701 -2621.56672068 2037.69039124 -2620.4375 2034.4375 C-2619.48295333 2032.50222858 -2618.45040909 2030.6045786 -2617.3671875 2028.73828125 C-2616.72587891 2027.62517578 -2616.08457031 2026.51207031 -2615.42382812 2025.36523438 C-2614.72015635 2024.16009536 -2614.01637743 2022.95501891 -2613.3125 2021.75 C-2612.58462184 2020.49192075 -2611.85741844 2019.23345088 -2611.13085938 2017.97460938 C-2609.63495912 2015.38532365 -2608.13517135 2012.79835478 -2606.63183594 2010.21337891 C-2603.99740445 2005.68302711 -2601.37984104 2001.14299738 -2598.76245117 1996.6027832 C-2597.53690119 1994.47713029 -2596.31048898 1992.35197428 -2595.08325195 1990.22729492 C-2588.50105493 1978.83036656 -2581.97669015 1967.4005408 -2575.45361328 1955.96972656 C-2573.44814186 1952.45569321 -2571.44111469 1948.94255031 -2569.43359375 1945.4296875 C-2569.10374985 1944.85249969 -2568.77390594 1944.27531189 -2568.43406677 1943.68063354 C-2566.77024641 1940.76925915 -2565.10624706 1937.85798712 -2563.44213867 1934.94677734 C-2560.42088747 1929.66096172 -2557.40076195 1924.3745188 -2554.38619995 1919.08488464 C-2552.69570925 1916.11866606 -2551.00434065 1913.1529488 -2549.3125 1910.1875 C-2548.97994202 1909.6045517 -2548.64738403 1909.02160339 -2548.30474854 1908.42098999 C-2543.68961953 1900.33504031 -2539.02128188 1892.28177229 -2534.3125 1884.25 C-2528.98603589 1875.16323595 -2523.81182164 1865.99959299 -2518.68920898 1856.79663086 C-2514.10181178 1848.57468735 -2509.38145344 1840.43683286 -2504.6171875 1832.31640625 C-2500.65855932 1825.55928477 -2496.7749768 1818.76408338 -2492.9375 1811.9375 C-2488.53239425 1804.10114729 -2484.04907003 1796.31613713 -2479.5 1788.5625 C-2474.10936228 1779.37092481 -2468.86943096 1770.10415367 -2463.68774414 1760.79345703 C-2459.12946772 1752.62302155 -2454.43381294 1744.53988652 -2449.69628906 1736.47241211 C-2445.43573967 1729.19785222 -2441.28931081 1721.86509604 -2437.1875 1714.5 C-2433.00841528 1706.99718876 -2428.77664116 1699.53821979 -2424.39208984 1692.15380859 C-2420.46153963 1685.51795771 -2416.63421884 1678.82396382 -2412.8125 1672.125 C-2412.47204651 1671.52827484 -2412.13159302 1670.93154968 -2411.78082275 1670.31674194 C-2410.03130922 1667.24977035 -2408.28257793 1664.18235359 -2406.53417969 1661.11474609 C-2403.50416492 1655.79932171 -2400.46752903 1650.48768209 -2397.43118286 1645.1758728 C-2395.76773375 1642.26579475 -2394.10452746 1639.35557796 -2392.44140625 1636.4453125 C-2392.11158249 1635.86817001 -2391.78175873 1635.29102753 -2391.44194031 1634.69639587 C-2389.43084478 1631.176925 -2387.4209059 1627.65679627 -2385.41183472 1624.13616943 C-2377.99910337 1611.14646645 -2370.56138912 1598.17177956 -2363.07958984 1585.22167969 C-2356.49961643 1573.826041 -2349.97558628 1562.39860643 -2343.45361328 1550.96972656 C-2341.44814186 1547.45569321 -2339.44111469 1543.94255031 -2337.43359375 1540.4296875 C-2337.10374985 1539.85249969 -2336.77390594 1539.27531189 -2336.43406677 1538.68063354 C-2334.77024641 1535.76925915 -2333.10624706 1532.85798712 -2331.44213867 1529.94677734 C-2328.42088747 1524.66096172 -2325.40076195 1519.3745188 -2322.38619995 1514.08488464 C-2320.69570925 1511.11866606 -2319.00434065 1508.1529488 -2317.3125 1505.1875 C-2316.97994202 1504.6045517 -2316.64738403 1504.02160339 -2316.30474854 1503.42098999 C-2311.68961953 1495.33504031 -2307.02128188 1487.28177229 -2302.3125 1479.25 C-2296.98521058 1470.161828 -2291.80986462 1460.99693841 -2286.68701172 1451.79223633 C-2282.12906852 1443.62215814 -2277.43357221 1435.53947658 -2272.69628906 1427.47241211 C-2268.43573967 1420.19785222 -2264.28931081 1412.86509604 -2260.1875 1405.5 C-2256.00841528 1397.99718876 -2251.77664116 1390.53821979 -2247.39208984 1383.15380859 C-2243.46153963 1376.51795771 -2239.63421884 1369.82396382 -2235.8125 1363.125 C-2235.47204651 1362.52827484 -2235.13159302 1361.93154968 -2234.78082275 1361.31674194 C-2233.03130922 1358.24977035 -2231.28257793 1355.18235359 -2229.53417969 1352.11474609 C-2226.50416492 1346.79932171 -2223.46752903 1341.48768209 -2220.43118286 1336.1758728 C-2218.76773375 1333.26579475 -2217.10452746 1330.35557796 -2215.44140625 1327.4453125 C-2215.11158249 1326.86817001 -2214.78175873 1326.29102753 -2214.44194031 1325.69639587 C-2212.43084478 1322.176925 -2210.4209059 1318.65679627 -2208.41183472 1315.13616943 C-2200.99910337 1302.14646645 -2193.56138912 1289.17177956 -2186.07958984 1276.22167969 C-2181.53261981 1268.34693242 -2177.00939315 1260.45880762 -2172.5 1252.5625 C-2172.17022156 1251.98511078 -2171.84044312 1251.40772156 -2171.50067139 1250.81283569 C-2168.09116555 1244.84281618 -2164.6843955 1238.87124078 -2161.28019714 1232.89819336 C-2159.87800092 1230.43834623 -2158.47492797 1227.97899975 -2157.07174683 1225.51971436 C-2156.11084152 1223.83476686 -2155.15121205 1222.14909196 -2154.19165039 1220.46337891 C-2150.57157017 1214.11851228 -2146.9010813 1207.80613398 -2143.19287109 1201.51245117 C-2142.50393013 1200.34224552 -2142.50393013 1200.34224552 -2141.80107117 1199.14839935 C-2140.68017651 1197.24459181 -2139.55898041 1195.34096253 -2138.4375 1193.4375 C-2139.27659683 1193.43772374 -2140.11569366 1193.43794748 -2140.98021767 1193.438178 C-2229.5629786 1193.46155769 -2318.14574391 1193.47898006 -2414.95715332 1193.44789124 C-2416.33444775 1193.44744341 -2417.71174218 1193.4469956 -2419.08903661 1193.44654779 C-2447.9982425 1193.43711715 -2476.9074477 1193.42624688 -2505.81665241 1193.41371334 C-2520.33851094 1193.40741895 -2534.86036957 1193.40140122 -2549.38222833 1193.39564508 C-2551.57280809 1193.39477518 -2553.76338785 1193.39389737 -2555.95396761 1193.39301924 C-2589.68936698 1193.37956546 -2623.42475485 1193.37204844 -2657.16015625 1193.38171387 C-2658.24832661 1193.38202546 -2658.24832661 1193.38202546 -2659.35848022 1193.38234336 C-2671.05497513 1193.38572869 -2682.75146988 1193.38961186 -2694.44796462 1193.3935611 C-2728.13383631 1193.4049273 -2761.81969065 1193.41261767 -2795.50556183 1193.39593601 C-2796.19815732 1193.39559482 -2796.89075282 1193.39525364 -2797.60433605 1193.39490211 C-2812.80780256 1193.38734641 -2828.01126728 1193.37789709 -2843.2147315 1193.36665436 C-2849.33192066 1193.36216416 -2855.44911001 1193.35794661 -2861.56629944 1193.35382271 C-2862.23580277 1193.35336479 -2862.9053061 1193.35290686 -2863.5950974 1193.35243507 C-2885.17328437 1193.33781185 -2906.7513936 1193.34539015 -2928.32957487 1193.36459288 C-2950.66704916 1193.38436701 -2973.00438726 1193.37950055 -2995.34184688 1193.34583985 C-3008.22663793 1193.32719888 -3021.11108451 1193.32818889 -3033.99585885 1193.35692088 C-3042.59472835 1193.37418642 -3051.19333198 1193.36623521 -3059.79217029 1193.33750314 C-3064.69707144 1193.32184407 -3069.60129272 1193.31741138 -3074.50616401 1193.3436371 C-3078.96637147 1193.36726997 -3083.42531322 1193.35885658 -3087.88544139 1193.32461923 C-3089.49088515 1193.31795709 -3091.09643093 1193.32308083 -3092.7017853 1193.34128497 C-3106.11942597 1193.48294186 -3106.11942597 1193.48294186 -3111.31887484 1189.13269049 C-3114.56999154 1185.76055429 -3116.38061435 1182.91652685 -3116.5625 1178.1875 C-3116.52125 1177.28 -3116.48 1176.3725 -3116.4375 1175.4375 C-3115.4475 1175.1075 -3114.4575 1174.7775 -3113.4375 1174.4375 C-3112.7612717 1172.44071265 -3112.09756241 1170.43968932 -3111.4375 1168.4375 C-3109.65418213 1165.06681656 -3107.66332011 1161.82316837 -3105.6875 1158.5625 C-3104.50320287 1156.58375414 -3103.31963392 1154.60457232 -3102.13671875 1152.625 C-3101.21898682 1151.09359375 -3101.21898682 1151.09359375 -3100.28271484 1149.53125 C-3097.31923141 1144.56257283 -3094.40926452 1139.56305477 -3091.5 1134.5625 C-3090.32424218 1132.54425719 -3089.1484608 1130.52602809 -3087.97265625 1128.5078125 C-3087.38887207 1127.50524414 -3086.80508789 1126.50267578 -3086.20361328 1125.46972656 C-3083.28421977 1120.45744187 -3080.36066314 1115.44758684 -3077.4375 1110.4375 C-3076.27081309 1108.43751181 -3075.10414643 1106.4375118 -3073.9375 1104.4375 C-3016.1875 1005.4375 -2958.4375 906.4375 -2464.9375 60.4375 C-2464.35943604 59.44645264 -2463.78137207 58.45540527 -2463.18579102 57.43432617 C-2462.0251046 55.44474011 -2460.86413689 53.45531811 -2459.70288086 51.46606445 C-2456.6923278 46.30807659 -2453.68747674 41.14688432 -2450.69140625 35.98046875 C-2450.07330078 34.91634766 -2449.45519531 33.85222656 -2448.81835938 32.75585938 C-2447.64984695 30.7439094 -2446.48303567 28.73096993 -2445.31835938 26.71679688 C-2444.24092595 24.86330095 -2443.13638611 23.0252779 -2442.00439453 21.20458984 C-2440.34213404 18.4604347 -2440.34213404 18.4604347 -2439.35107422 15.33056641 C-2437.81052282 11.62978381 -2436.67241624 9.84993754 -2433.4375 7.4375 C-2426.61997844 5.6632099 -2419.29393342 6.23840392 -2412.31427002 6.37988281 C-2408.30924897 6.43940609 -2404.31217169 6.39944019 -2400.30810547 6.3203125 C-2394.30484747 6.20206783 -2388.30203304 6.11266777 -2382.29792786 6.05105591 C-2381.43360758 6.04192173 -2380.56928729 6.03278755 -2379.67877549 6.02337658 C-2376.91085484 5.99429499 -2374.14292864 5.96580963 -2371.375 5.9375 C-2370.47623894 5.92826932 -2369.57747787 5.91903865 -2368.65148163 5.90952826 C-2359.73535949 5.81821072 -2350.81921049 5.72961457 -2341.9030571 5.64140892 C-2339.63528692 5.61895619 -2337.36751679 5.59649838 -2335.0997467 5.57403564 C-2333.96277198 5.56278566 -2332.82579726 5.55153567 -2331.65436876 5.53994477 C-2325.11520256 5.47496841 -2318.5760653 5.40775565 -2312.03694654 5.33817446 C-2210.02549246 4.25334216 -2108.01389637 4.28218205 -1998.61044114 4.30803868 C-1980.21905166 4.31247887 -1961.82766866 4.31169961 -1943.4362793 4.30712891 C-1840.05915241 4.28227368 -1736.6835011 4.30753291 -1576.66473061 5.41325152 C-1573.34569756 5.43818978 -1570.02666375 5.4630238 -1566.70762968 5.48782635 C-1492.38998609 6.04320424 -1418.07263647 6.63384052 -1343.75534803 7.2345134 C-1293.2179051 7.64297453 -1242.68043362 8.04790123 -1192.14295365 8.45175064 C-1188.12052358 8.48389435 -1184.09809359 8.51604829 -1180.07566368 8.54821076 C-1094.52997196 9.23219502 -1008.98426776 9.90186284 -923.4375 10.4375 C-922.27696342 10.44478528 -921.11642684 10.45207056 -919.92072248 10.45957661 C-887.09310256 10.66535405 -854.26540342 10.84605247 -821.4375 11 C-819.80792539 11.00769425 -819.80792539 11.00769425 -818.14543009 11.01554394 C-693.92750133 11.60157532 -569.70662258 11.74426983 -67.36618042 7.75866699 C-52.62433839 7.50694047 -37.88245162 7.28493516 -23.13824558 7.24333668 C-13.99113154 7.52357508 -13.99113154 7.52357508 -6.2109375 3.4140625 C-5.7370459 2.86959473 -5.2631543 2.32512695 -4.77490234 1.76416016 C-3.4375 0.4375 -3.4375 0.4375 0 0 Z " fill="#E50914" transform="translate(3552.4375,648.5625)"/>
</svg>
